<?xml version="1.0" encoding="utf-8"?>
<!-- Generator: Adobe Illustrator 16.0.0, SVG Export Plug-In . SVG Version: 6.00 Build 0)  -->
<!DOCTYPE svg PUBLIC "-//W3C//DTD SVG 1.1//EN" "http://www.w3.org/Graphics/SVG/1.1/DTD/svg11.dtd">
<svg version="1.1" id="Layer_2" xmlns="http://www.w3.org/2000/svg" xmlns:xlink="http://www.w3.org/1999/xlink" x="0px" y="0px"
	 width="785.75px" height="291px" viewBox="0 0 785.75 291" enable-background="new 0 0 785.75 291" xml:space="preserve">
<pattern  x="333" y="540.25" width="69" height="69" patternUnits="userSpaceOnUse" id="Polka_Dot_Pattern" viewBox="2.125 -70.896 69 69" overflow="visible">
	<g>
		<polygon fill="none" points="71.125,-1.896 2.125,-1.896 2.125,-70.896 71.125,-70.896 		"/>
		<polygon fill="#F6BB60" points="71.125,-1.896 2.125,-1.896 2.125,-70.896 71.125,-70.896 		"/>
		<g>
			<path fill="#FFFFFF" d="M61.772-71.653c0.018,0.072,0.007,0.127-0.026,0.19c-0.053,0.101-0.112,0.063-0.165,0.128
				c-0.05,0.063-0.099,0.276-0.079,0.362c-0.169,0.058-0.01,0.227-0.015,0.35c-0.002,0.05-0.041,0.105-0.045,0.161
				c-0.01,0.119,0.017,0.266,0.068,0.37c0.097,0.198,0.268,0.413,0.435,0.544c0.19,0.148,0.365,0.572,0.608,0.631
				c0.177,0.042,0.384-0.104,0.543-0.143c0.18-0.043,0.397,0.01,0.571-0.053c0.222-0.079,0.127-0.337,0.288-0.45
				c0.104-0.074,0.287-0.01,0.406-0.051c0.2-0.069,0.339-0.263,0.376-0.46c0.016-0.082,0.01-0.145,0.039-0.221
				c0.039-0.103,0.111-0.16,0.09-0.293c-0.01-0.062-0.052-0.12-0.064-0.187c-0.022-0.114,0.002-0.224,0-0.337
				c-0.003-0.2,0.017-0.379-0.078-0.55c-0.38-0.688-1.236-0.929-1.975-0.789c-0.18,0.034-0.287,0.126-0.442,0.207
				c-0.17,0.088-0.139,0.166-0.318,0.224c-0.081,0.026-0.216,0.124-0.215,0.224c0.001,0.115,0.005,0.051,0.012,0.169
				c-0.021,0.011-0.021-0.005-0.03-0.025"/>
			<path fill="#FFFFFF" d="M54.105-71.653c0.018,0.072,0.007,0.127-0.026,0.19c-0.053,0.101-0.112,0.063-0.165,0.128
				c-0.05,0.063-0.099,0.276-0.079,0.362c-0.169,0.058-0.01,0.227-0.015,0.35c-0.002,0.05-0.041,0.105-0.045,0.161
				c-0.01,0.119,0.017,0.266,0.068,0.37c0.097,0.198,0.268,0.413,0.435,0.544c0.19,0.148,0.365,0.572,0.608,0.631
				c0.177,0.042,0.384-0.104,0.543-0.143c0.18-0.043,0.397,0.01,0.571-0.053c0.222-0.079,0.127-0.337,0.288-0.45
				c0.104-0.074,0.287-0.01,0.406-0.051c0.2-0.069,0.339-0.263,0.376-0.46c0.016-0.082,0.01-0.145,0.039-0.221
				c0.039-0.103,0.111-0.16,0.09-0.293c-0.01-0.062-0.052-0.12-0.064-0.187c-0.022-0.114,0.002-0.224,0-0.337
				c-0.003-0.2,0.017-0.379-0.078-0.55c-0.38-0.688-1.236-0.929-1.975-0.789c-0.18,0.034-0.287,0.126-0.442,0.207
				c-0.17,0.088-0.139,0.166-0.318,0.224c-0.081,0.026-0.216,0.124-0.215,0.224c0.001,0.115,0.005,0.051,0.012,0.169
				c-0.021,0.011-0.021-0.005-0.03-0.025"/>
			<path fill="#FFFFFF" d="M46.439-71.653c0.018,0.072,0.007,0.127-0.026,0.19c-0.053,0.101-0.112,0.063-0.165,0.128
				c-0.05,0.063-0.099,0.276-0.079,0.362c-0.169,0.058-0.01,0.227-0.015,0.35c-0.002,0.05-0.041,0.105-0.045,0.161
				c-0.01,0.119,0.017,0.266,0.068,0.37c0.097,0.198,0.268,0.413,0.435,0.544c0.19,0.148,0.365,0.572,0.608,0.631
				c0.177,0.042,0.384-0.104,0.543-0.143c0.18-0.043,0.397,0.01,0.571-0.053c0.222-0.079,0.127-0.337,0.288-0.45
				c0.104-0.074,0.287-0.01,0.406-0.051c0.2-0.069,0.339-0.263,0.376-0.46c0.016-0.082,0.01-0.145,0.039-0.221
				c0.039-0.103,0.111-0.16,0.09-0.293c-0.01-0.062-0.052-0.12-0.064-0.187c-0.022-0.114,0.002-0.224,0-0.337
				c-0.003-0.2,0.017-0.379-0.078-0.55c-0.38-0.688-1.236-0.929-1.975-0.789c-0.18,0.034-0.287,0.126-0.442,0.207
				c-0.17,0.088-0.139,0.166-0.318,0.224c-0.081,0.026-0.216,0.124-0.215,0.224c0.001,0.115,0.005,0.051,0.012,0.169
				c-0.021,0.011-0.021-0.005-0.03-0.025"/>
			<path fill="#FFFFFF" d="M38.772-71.653c0.018,0.072,0.007,0.127-0.026,0.19c-0.053,0.101-0.112,0.063-0.165,0.128
				c-0.05,0.063-0.099,0.276-0.079,0.362c-0.169,0.058-0.01,0.227-0.015,0.35c-0.002,0.05-0.041,0.105-0.045,0.161
				c-0.01,0.119,0.017,0.266,0.068,0.37c0.097,0.198,0.268,0.413,0.435,0.544c0.19,0.148,0.365,0.572,0.608,0.631
				c0.177,0.042,0.384-0.104,0.543-0.143c0.18-0.043,0.397,0.01,0.571-0.053c0.222-0.079,0.127-0.337,0.288-0.45
				c0.104-0.074,0.287-0.01,0.406-0.051c0.2-0.069,0.339-0.263,0.376-0.46c0.016-0.082,0.01-0.145,0.039-0.221
				c0.039-0.103,0.111-0.16,0.09-0.293c-0.01-0.062-0.052-0.12-0.064-0.187c-0.022-0.114,0.002-0.224,0-0.337
				c-0.003-0.2,0.017-0.379-0.078-0.55c-0.38-0.688-1.236-0.929-1.975-0.789c-0.18,0.034-0.287,0.126-0.442,0.207
				c-0.17,0.088-0.139,0.166-0.318,0.224c-0.081,0.026-0.216,0.124-0.215,0.224c0.001,0.115,0.005,0.051,0.012,0.169
				c-0.021,0.011-0.021-0.005-0.03-0.025"/>
			<path fill="#FFFFFF" d="M31.105-71.653c0.018,0.072,0.007,0.127-0.026,0.19c-0.053,0.101-0.112,0.063-0.165,0.128
				c-0.05,0.063-0.099,0.276-0.079,0.362c-0.169,0.058-0.01,0.227-0.015,0.35c-0.002,0.05-0.041,0.105-0.045,0.161
				c-0.01,0.119,0.017,0.266,0.068,0.37c0.097,0.198,0.268,0.413,0.435,0.544c0.19,0.148,0.365,0.572,0.608,0.631
				c0.177,0.042,0.384-0.104,0.543-0.143c0.18-0.043,0.397,0.01,0.571-0.053c0.222-0.079,0.127-0.337,0.288-0.45
				c0.104-0.074,0.287-0.01,0.406-0.051c0.2-0.069,0.339-0.263,0.376-0.46c0.016-0.082,0.01-0.145,0.039-0.221
				c0.039-0.103,0.111-0.16,0.09-0.293c-0.01-0.062-0.052-0.12-0.064-0.187c-0.022-0.114,0.002-0.224,0-0.337
				c-0.003-0.2,0.017-0.379-0.078-0.55c-0.38-0.688-1.236-0.929-1.975-0.789c-0.18,0.034-0.287,0.126-0.442,0.207
				c-0.17,0.088-0.139,0.166-0.318,0.224c-0.081,0.026-0.216,0.124-0.215,0.224c0.001,0.115,0.005,0.051,0.012,0.169
				c-0.021,0.011-0.021-0.005-0.03-0.025"/>
			<path fill="#FFFFFF" d="M23.439-71.653c0.018,0.072,0.007,0.127-0.026,0.19c-0.053,0.101-0.112,0.063-0.165,0.128
				c-0.05,0.063-0.099,0.276-0.079,0.362c-0.169,0.058-0.01,0.227-0.015,0.35c-0.002,0.05-0.041,0.105-0.045,0.161
				c-0.01,0.119,0.017,0.266,0.068,0.37c0.097,0.198,0.268,0.413,0.435,0.544c0.19,0.148,0.365,0.572,0.608,0.631
				c0.177,0.042,0.384-0.104,0.543-0.143c0.18-0.043,0.397,0.01,0.571-0.053c0.222-0.079,0.127-0.337,0.288-0.45
				c0.104-0.074,0.287-0.01,0.406-0.051c0.2-0.069,0.339-0.263,0.376-0.46c0.016-0.082,0.01-0.145,0.039-0.221
				c0.039-0.103,0.111-0.16,0.09-0.293c-0.01-0.062-0.052-0.12-0.064-0.187c-0.022-0.114,0.002-0.224,0-0.337
				c-0.003-0.2,0.017-0.379-0.078-0.55c-0.38-0.688-1.236-0.929-1.975-0.789c-0.18,0.034-0.287,0.126-0.442,0.207
				c-0.17,0.088-0.139,0.166-0.318,0.224c-0.081,0.026-0.216,0.124-0.215,0.224c0.001,0.115,0.005,0.051,0.012,0.169
				c-0.021,0.011-0.021-0.005-0.03-0.025"/>
			<path fill="#FFFFFF" d="M15.772-71.653c0.018,0.072,0.007,0.127-0.026,0.19c-0.053,0.101-0.112,0.063-0.165,0.128
				c-0.05,0.063-0.099,0.276-0.079,0.362c-0.169,0.058-0.01,0.227-0.015,0.35c-0.002,0.05-0.041,0.105-0.045,0.161
				c-0.01,0.119,0.017,0.266,0.068,0.37c0.097,0.198,0.268,0.413,0.435,0.544c0.19,0.148,0.365,0.572,0.608,0.631
				c0.177,0.042,0.384-0.104,0.543-0.143c0.18-0.043,0.397,0.01,0.571-0.053c0.222-0.079,0.127-0.337,0.288-0.45
				c0.104-0.074,0.287-0.01,0.406-0.051c0.2-0.069,0.339-0.263,0.376-0.46c0.016-0.082,0.01-0.145,0.039-0.221
				c0.039-0.103,0.111-0.16,0.09-0.293c-0.01-0.062-0.052-0.12-0.064-0.187c-0.022-0.114,0.002-0.224,0-0.337
				c-0.003-0.2,0.017-0.379-0.078-0.55c-0.38-0.688-1.236-0.929-1.975-0.789c-0.18,0.034-0.287,0.126-0.442,0.207
				c-0.17,0.088-0.139,0.166-0.318,0.224c-0.081,0.026-0.216,0.124-0.215,0.224c0.001,0.115,0.005,0.051,0.012,0.169
				c-0.021,0.011-0.021-0.005-0.03-0.025"/>
			<path fill="#FFFFFF" d="M8.105-71.653c0.018,0.072,0.007,0.127-0.026,0.19c-0.053,0.101-0.112,0.063-0.165,0.128
				c-0.05,0.063-0.099,0.276-0.079,0.362c-0.169,0.058-0.01,0.227-0.015,0.35c-0.002,0.05-0.041,0.105-0.045,0.161
				c-0.01,0.119,0.017,0.266,0.068,0.37c0.097,0.198,0.268,0.413,0.435,0.544c0.19,0.148,0.365,0.572,0.608,0.631
				c0.177,0.042,0.384-0.104,0.543-0.143c0.18-0.043,0.397,0.01,0.571-0.053c0.222-0.079,0.127-0.337,0.288-0.45
				c0.104-0.074,0.287-0.01,0.406-0.051c0.2-0.069,0.339-0.263,0.376-0.46c0.016-0.082,0.01-0.145,0.039-0.221
				c0.039-0.103,0.111-0.16,0.09-0.293c-0.01-0.062-0.052-0.12-0.064-0.187c-0.022-0.114,0.002-0.224,0-0.337
				c-0.003-0.2,0.017-0.379-0.078-0.55c-0.38-0.688-1.236-0.929-1.975-0.789c-0.18,0.034-0.287,0.126-0.442,0.207
				c-0.17,0.088-0.139,0.166-0.318,0.224c-0.081,0.026-0.216,0.124-0.215,0.224c0.001,0.115,0.005,0.051,0.012,0.169
				c-0.021,0.011-0.021-0.005-0.03-0.025"/>
			<path fill="#FFFFFF" d="M0.439-71.653c0.018,0.072,0.008,0.127-0.026,0.19C0.361-71.362,0.3-71.4,0.248-71.335
				c-0.051,0.063-0.099,0.276-0.079,0.362c-0.169,0.058-0.01,0.227-0.015,0.35c-0.002,0.05-0.041,0.105-0.045,0.161
				c-0.01,0.119,0.017,0.266,0.068,0.37c0.097,0.198,0.268,0.413,0.435,0.544c0.19,0.148,0.365,0.572,0.608,0.631
				c0.177,0.042,0.384-0.104,0.543-0.143c0.18-0.043,0.397,0.01,0.571-0.053c0.222-0.079,0.127-0.337,0.288-0.45
				c0.104-0.074,0.287-0.01,0.406-0.051c0.2-0.07,0.339-0.263,0.376-0.46c0.016-0.082,0.01-0.145,0.039-0.221
				c0.038-0.103,0.111-0.16,0.09-0.293c-0.01-0.062-0.051-0.12-0.064-0.187c-0.021-0.114,0.002-0.224,0-0.337
				c-0.003-0.2,0.017-0.379-0.078-0.55c-0.38-0.688-1.236-0.929-1.975-0.789c-0.18,0.034-0.287,0.126-0.442,0.207
				c-0.17,0.088-0.139,0.166-0.318,0.224c-0.081,0.026-0.215,0.124-0.215,0.224c0.002,0.115,0.005,0.051,0.012,0.169
				c-0.021,0.011-0.021-0.005-0.03-0.025"/>
		</g>
		<g>
			<path fill="#FFFFFF" d="M69.439-71.653c0.018,0.072,0.008,0.127-0.026,0.19c-0.052,0.101-0.113,0.063-0.165,0.128
				c-0.051,0.063-0.099,0.276-0.079,0.362c-0.169,0.058-0.01,0.227-0.015,0.35c-0.002,0.05-0.041,0.105-0.045,0.161
				c-0.01,0.119,0.017,0.266,0.068,0.37c0.097,0.198,0.268,0.413,0.435,0.544c0.19,0.148,0.365,0.572,0.608,0.631
				c0.177,0.042,0.384-0.104,0.543-0.143c0.18-0.043,0.397,0.01,0.571-0.053c0.222-0.079,0.127-0.337,0.288-0.45
				c0.104-0.074,0.287-0.01,0.406-0.051c0.2-0.07,0.339-0.263,0.376-0.46c0.016-0.082,0.01-0.145,0.039-0.221
				c0.038-0.103,0.111-0.16,0.09-0.293c-0.01-0.062-0.051-0.12-0.064-0.187c-0.021-0.114,0.002-0.224,0-0.337
				c-0.003-0.2,0.017-0.379-0.078-0.55c-0.38-0.688-1.236-0.929-1.975-0.789c-0.18,0.034-0.287,0.126-0.442,0.207
				c-0.17,0.088-0.139,0.166-0.318,0.224c-0.081,0.026-0.215,0.124-0.215,0.224c0.002,0.115,0.005,0.051,0.012,0.169
				c-0.021,0.011-0.021-0.005-0.03-0.025"/>
		</g>
		<path fill="#FFFFFF" d="M0.495-71.653c0.018,0.072,0.008,0.127-0.026,0.19c-0.052,0.101-0.113,0.063-0.165,0.128
			c-0.051,0.063-0.099,0.276-0.079,0.362c-0.169,0.058-0.01,0.227-0.015,0.35c-0.002,0.05-0.041,0.105-0.045,0.161
			c-0.01,0.119,0.017,0.266,0.068,0.37c0.097,0.198,0.268,0.413,0.435,0.544c0.19,0.148,0.365,0.572,0.608,0.631
			c0.177,0.042,0.384-0.104,0.543-0.143c0.18-0.043,0.397,0.01,0.571-0.053c0.222-0.079,0.127-0.337,0.288-0.45
			c0.104-0.074,0.287-0.01,0.406-0.051c0.2-0.07,0.339-0.263,0.376-0.46c0.016-0.082,0.01-0.145,0.039-0.221
			c0.038-0.103,0.111-0.16,0.09-0.293c-0.01-0.062-0.051-0.12-0.064-0.187c-0.021-0.114,0.002-0.224,0-0.337
			c-0.003-0.2,0.017-0.379-0.078-0.55c-0.38-0.688-1.236-0.929-1.975-0.789c-0.18,0.034-0.287,0.126-0.442,0.207
			c-0.17,0.088-0.139,0.166-0.318,0.224c-0.081,0.026-0.215,0.124-0.215,0.224C0.5-71.68,0.503-71.744,0.51-71.626
			c-0.021,0.011-0.021-0.005-0.03-0.025"/>
		<g>
			<g>
				<path fill="#FFFFFF" d="M69.439-64.001c0.018,0.072,0.007,0.127-0.026,0.19c-0.053,0.101-0.112,0.063-0.165,0.128
					c-0.05,0.063-0.099,0.276-0.079,0.362c-0.169,0.058-0.01,0.227-0.015,0.35c-0.002,0.05-0.041,0.105-0.045,0.161
					c-0.01,0.119,0.017,0.266,0.068,0.37c0.097,0.198,0.268,0.413,0.435,0.544c0.19,0.148,0.365,0.572,0.608,0.631
					c0.177,0.042,0.384-0.104,0.543-0.143c0.18-0.043,0.397,0.01,0.571-0.053c0.222-0.079,0.127-0.337,0.288-0.45
					c0.104-0.074,0.287-0.01,0.406-0.051c0.2-0.069,0.339-0.263,0.376-0.46c0.016-0.082,0.01-0.145,0.039-0.221
					c0.039-0.103,0.111-0.16,0.09-0.293c-0.01-0.062-0.052-0.12-0.064-0.187c-0.022-0.114,0.002-0.224,0-0.337
					c-0.003-0.2,0.017-0.379-0.078-0.55c-0.38-0.688-1.236-0.929-1.975-0.789c-0.18,0.034-0.287,0.126-0.442,0.207
					c-0.17,0.088-0.139,0.166-0.318,0.224c-0.081,0.026-0.216,0.124-0.215,0.224c0.001,0.115,0.005,0.051,0.012,0.169
					c-0.021,0.011-0.021-0.005-0.03-0.025"/>
				<path fill="#FFFFFF" d="M61.778-64.001c0.018,0.072,0.007,0.127-0.026,0.19c-0.053,0.101-0.112,0.063-0.165,0.128
					c-0.05,0.063-0.099,0.276-0.079,0.362c-0.169,0.058-0.009,0.227-0.015,0.35c-0.002,0.05-0.041,0.105-0.045,0.161
					c-0.01,0.119,0.017,0.266,0.068,0.37c0.097,0.198,0.268,0.413,0.435,0.544c0.19,0.148,0.365,0.572,0.608,0.631
					c0.177,0.042,0.384-0.104,0.543-0.143c0.18-0.043,0.397,0.01,0.571-0.053c0.222-0.079,0.127-0.337,0.288-0.45
					c0.104-0.074,0.287-0.01,0.406-0.051c0.2-0.069,0.339-0.263,0.376-0.46c0.016-0.082,0.01-0.145,0.039-0.221
					c0.039-0.103,0.111-0.16,0.09-0.293c-0.01-0.062-0.052-0.12-0.064-0.187c-0.022-0.114,0.002-0.224,0-0.337
					c-0.003-0.2,0.017-0.379-0.078-0.55c-0.38-0.688-1.236-0.929-1.975-0.789c-0.18,0.034-0.287,0.126-0.442,0.207
					c-0.17,0.088-0.139,0.166-0.318,0.224c-0.081,0.026-0.216,0.124-0.215,0.224c0.001,0.115,0.005,0.051,0.012,0.169
					c-0.021,0.011-0.021-0.005-0.03-0.025"/>
				<path fill="#FFFFFF" d="M54.118-64.001c0.018,0.072,0.007,0.127-0.026,0.19c-0.053,0.101-0.112,0.063-0.165,0.128
					c-0.05,0.063-0.099,0.276-0.079,0.362c-0.169,0.058-0.009,0.227-0.015,0.35c-0.002,0.05-0.041,0.105-0.045,0.161
					c-0.01,0.119,0.017,0.266,0.068,0.37c0.097,0.198,0.268,0.413,0.435,0.544c0.19,0.148,0.365,0.572,0.608,0.631
					c0.177,0.042,0.384-0.104,0.543-0.143c0.18-0.043,0.397,0.01,0.571-0.053c0.222-0.079,0.127-0.337,0.288-0.45
					c0.104-0.074,0.287-0.01,0.406-0.051c0.2-0.069,0.339-0.263,0.376-0.46c0.016-0.082,0.01-0.145,0.039-0.221
					c0.039-0.103,0.111-0.16,0.09-0.293c-0.01-0.062-0.052-0.12-0.064-0.187c-0.022-0.114,0.002-0.224,0-0.337
					c-0.003-0.2,0.017-0.379-0.078-0.55c-0.38-0.688-1.236-0.929-1.975-0.789c-0.18,0.034-0.287,0.126-0.442,0.207
					c-0.17,0.088-0.139,0.166-0.318,0.224c-0.081,0.026-0.216,0.124-0.215,0.224c0.001,0.115,0.005,0.051,0.012,0.169
					c-0.021,0.011-0.021-0.005-0.03-0.025"/>
				<path fill="#FFFFFF" d="M46.458-64.001c0.018,0.072,0.007,0.127-0.026,0.19c-0.053,0.101-0.112,0.063-0.165,0.128
					c-0.05,0.063-0.099,0.276-0.079,0.362c-0.169,0.058-0.009,0.227-0.015,0.35c-0.002,0.05-0.041,0.105-0.045,0.161
					c-0.01,0.119,0.017,0.266,0.068,0.37c0.097,0.198,0.268,0.413,0.435,0.544c0.19,0.148,0.365,0.572,0.608,0.631
					c0.177,0.042,0.384-0.104,0.543-0.143c0.18-0.043,0.397,0.01,0.571-0.053c0.222-0.079,0.127-0.337,0.288-0.45
					c0.104-0.074,0.287-0.01,0.406-0.051c0.2-0.069,0.339-0.263,0.376-0.46c0.016-0.082,0.01-0.145,0.039-0.221
					c0.039-0.103,0.111-0.16,0.09-0.293c-0.01-0.062-0.052-0.12-0.064-0.187c-0.022-0.114,0.002-0.224,0-0.337
					c-0.003-0.2,0.017-0.379-0.078-0.55c-0.38-0.688-1.236-0.929-1.975-0.789c-0.18,0.034-0.287,0.126-0.442,0.207
					c-0.17,0.088-0.139,0.166-0.318,0.224c-0.081,0.026-0.216,0.124-0.215,0.224c0.001,0.115,0.005,0.051,0.012,0.169
					c-0.021,0.011-0.021-0.005-0.03-0.025"/>
				<path fill="#FFFFFF" d="M38.797-64.001c0.018,0.072,0.007,0.127-0.026,0.19c-0.053,0.101-0.112,0.063-0.165,0.128
					c-0.05,0.063-0.099,0.276-0.079,0.362c-0.169,0.058-0.009,0.227-0.015,0.35c-0.002,0.05-0.041,0.105-0.045,0.161
					c-0.01,0.119,0.017,0.266,0.068,0.37c0.097,0.198,0.268,0.413,0.435,0.544c0.19,0.148,0.365,0.572,0.608,0.631
					c0.177,0.042,0.384-0.104,0.543-0.143c0.18-0.043,0.397,0.01,0.571-0.053c0.222-0.079,0.127-0.337,0.288-0.45
					c0.104-0.074,0.287-0.01,0.406-0.051c0.2-0.069,0.339-0.263,0.376-0.46c0.016-0.082,0.01-0.145,0.039-0.221
					c0.039-0.103,0.111-0.16,0.09-0.293c-0.01-0.062-0.052-0.12-0.064-0.187c-0.022-0.114,0.002-0.224,0-0.337
					c-0.003-0.2,0.017-0.379-0.078-0.55c-0.38-0.688-1.236-0.929-1.975-0.789c-0.18,0.034-0.287,0.126-0.442,0.207
					c-0.17,0.088-0.139,0.166-0.318,0.224c-0.081,0.026-0.216,0.124-0.215,0.224c0.001,0.115,0.005,0.051,0.012,0.169
					c-0.021,0.011-0.021-0.005-0.03-0.025"/>
				<path fill="#FFFFFF" d="M31.137-64.001c0.018,0.072,0.007,0.127-0.026,0.19c-0.053,0.101-0.112,0.063-0.165,0.128
					c-0.05,0.063-0.099,0.276-0.079,0.362c-0.169,0.058-0.009,0.227-0.015,0.35c-0.002,0.05-0.041,0.105-0.045,0.161
					c-0.01,0.119,0.017,0.266,0.068,0.37c0.097,0.198,0.268,0.413,0.435,0.544c0.19,0.148,0.365,0.572,0.608,0.631
					c0.177,0.042,0.384-0.104,0.543-0.143c0.18-0.043,0.397,0.01,0.571-0.053c0.222-0.079,0.127-0.337,0.288-0.45
					c0.104-0.074,0.287-0.01,0.406-0.051c0.2-0.069,0.339-0.263,0.376-0.46c0.016-0.082,0.01-0.145,0.039-0.221
					c0.039-0.103,0.111-0.16,0.09-0.293c-0.01-0.062-0.052-0.12-0.064-0.187c-0.022-0.114,0.002-0.224,0-0.337
					c-0.003-0.2,0.017-0.379-0.078-0.55c-0.38-0.688-1.236-0.929-1.975-0.789c-0.18,0.034-0.287,0.126-0.442,0.207
					c-0.17,0.088-0.139,0.166-0.318,0.224c-0.081,0.026-0.216,0.124-0.215,0.224c0.001,0.115,0.005,0.051,0.012,0.169
					c-0.021,0.011-0.021-0.005-0.03-0.025"/>
				<path fill="#FFFFFF" d="M23.477-64.001c0.018,0.072,0.007,0.127-0.026,0.19c-0.053,0.101-0.112,0.063-0.165,0.128
					c-0.05,0.063-0.099,0.276-0.079,0.362c-0.169,0.058-0.009,0.227-0.015,0.35c-0.002,0.05-0.041,0.105-0.045,0.161
					c-0.01,0.119,0.017,0.266,0.068,0.37c0.097,0.198,0.268,0.413,0.435,0.544c0.19,0.148,0.365,0.572,0.608,0.631
					c0.177,0.042,0.384-0.104,0.543-0.143c0.18-0.043,0.397,0.01,0.571-0.053c0.222-0.079,0.127-0.337,0.288-0.45
					c0.104-0.074,0.287-0.01,0.406-0.051c0.2-0.069,0.339-0.263,0.376-0.46c0.016-0.082,0.01-0.145,0.039-0.221
					c0.039-0.103,0.111-0.16,0.09-0.293c-0.01-0.062-0.052-0.12-0.064-0.187c-0.022-0.114,0.002-0.224,0-0.337
					c-0.003-0.2,0.017-0.379-0.078-0.55c-0.38-0.688-1.236-0.929-1.975-0.789c-0.18,0.034-0.287,0.126-0.442,0.207
					c-0.17,0.088-0.139,0.166-0.318,0.224c-0.081,0.026-0.216,0.124-0.215,0.224c0.001,0.115,0.005,0.051,0.012,0.169
					c-0.021,0.011-0.021-0.005-0.03-0.025"/>
				<path fill="#FFFFFF" d="M15.816-64.001c0.018,0.072,0.007,0.127-0.026,0.19c-0.053,0.101-0.112,0.063-0.165,0.128
					c-0.05,0.063-0.099,0.276-0.079,0.362c-0.169,0.058-0.009,0.227-0.015,0.35c-0.002,0.05-0.041,0.105-0.045,0.161
					c-0.01,0.119,0.017,0.266,0.068,0.37c0.097,0.198,0.268,0.413,0.435,0.544c0.19,0.148,0.365,0.572,0.608,0.631
					c0.177,0.042,0.384-0.104,0.543-0.143c0.18-0.043,0.397,0.01,0.571-0.053c0.222-0.079,0.127-0.337,0.288-0.45
					c0.104-0.074,0.287-0.01,0.406-0.051c0.2-0.069,0.339-0.263,0.376-0.46c0.016-0.082,0.01-0.145,0.039-0.221
					c0.039-0.103,0.111-0.16,0.09-0.293c-0.01-0.062-0.052-0.12-0.064-0.187c-0.022-0.114,0.002-0.224,0-0.337
					c-0.003-0.2,0.017-0.379-0.078-0.55c-0.38-0.688-1.236-0.929-1.975-0.789c-0.18,0.034-0.287,0.126-0.442,0.207
					c-0.17,0.088-0.139,0.166-0.318,0.224c-0.081,0.026-0.216,0.124-0.215,0.224c0.001,0.115,0.005,0.051,0.012,0.169
					c-0.021,0.011-0.021-0.005-0.03-0.025"/>
				<path fill="#FFFFFF" d="M8.156-64.001c0.018,0.072,0.007,0.127-0.026,0.19c-0.053,0.101-0.112,0.063-0.165,0.128
					c-0.05,0.063-0.099,0.276-0.079,0.362c-0.169,0.058-0.009,0.227-0.015,0.35c-0.002,0.05-0.041,0.105-0.045,0.161
					c-0.01,0.119,0.017,0.266,0.068,0.37c0.097,0.198,0.268,0.413,0.435,0.544c0.19,0.148,0.365,0.572,0.608,0.631
					c0.177,0.042,0.384-0.104,0.543-0.143c0.18-0.043,0.397,0.01,0.571-0.053c0.222-0.079,0.127-0.337,0.288-0.45
					c0.104-0.074,0.287-0.01,0.406-0.051c0.2-0.069,0.339-0.263,0.376-0.46c0.016-0.082,0.01-0.145,0.039-0.221
					c0.039-0.103,0.111-0.16,0.09-0.293c-0.01-0.062-0.052-0.12-0.064-0.187c-0.022-0.114,0.002-0.224,0-0.337
					c-0.003-0.2,0.017-0.379-0.078-0.55c-0.38-0.688-1.236-0.929-1.975-0.789c-0.18,0.034-0.287,0.126-0.442,0.207
					c-0.17,0.088-0.139,0.166-0.318,0.224c-0.081,0.026-0.216,0.124-0.215,0.224c0.001,0.115,0.005,0.051,0.012,0.169
					c-0.021,0.011-0.021-0.005-0.03-0.025"/>
				<path fill="#FFFFFF" d="M0.495-64.001c0.018,0.072,0.007,0.127-0.026,0.19c-0.053,0.101-0.112,0.063-0.165,0.128
					c-0.05,0.063-0.099,0.276-0.079,0.362c-0.169,0.058-0.01,0.227-0.015,0.35c-0.002,0.05-0.041,0.105-0.045,0.161
					c-0.01,0.119,0.017,0.266,0.068,0.37c0.097,0.198,0.268,0.413,0.435,0.544c0.19,0.148,0.365,0.572,0.608,0.631
					c0.177,0.042,0.384-0.104,0.543-0.143C2-61.45,2.217-61.397,2.391-61.46c0.222-0.079,0.127-0.337,0.288-0.45
					c0.104-0.074,0.287-0.01,0.406-0.051c0.2-0.069,0.339-0.263,0.376-0.46c0.016-0.082,0.01-0.145,0.039-0.221
					c0.039-0.103,0.111-0.16,0.09-0.293c-0.01-0.062-0.052-0.12-0.064-0.187c-0.022-0.114,0.002-0.224,0-0.337
					c-0.003-0.2,0.017-0.379-0.078-0.55c-0.38-0.688-1.236-0.929-1.975-0.789c-0.18,0.034-0.287,0.126-0.442,0.207
					c-0.17,0.088-0.139,0.166-0.318,0.224c-0.081,0.026-0.216,0.124-0.215,0.224c0.001,0.115,0.005,0.051,0.012,0.169
					c-0.021,0.011-0.021-0.005-0.03-0.025"/>
			</g>
			<g>
				<path fill="#FFFFFF" d="M69.439-56.348c0.018,0.072,0.007,0.127-0.026,0.19c-0.053,0.101-0.112,0.063-0.165,0.128
					c-0.05,0.063-0.099,0.276-0.079,0.362c-0.169,0.058-0.01,0.227-0.015,0.35c-0.002,0.05-0.041,0.105-0.045,0.161
					c-0.01,0.119,0.017,0.266,0.068,0.37c0.097,0.198,0.268,0.413,0.435,0.544c0.19,0.148,0.365,0.572,0.608,0.631
					c0.177,0.042,0.384-0.104,0.543-0.143c0.18-0.043,0.397,0.01,0.571-0.053c0.222-0.079,0.127-0.337,0.288-0.45
					c0.104-0.074,0.287-0.01,0.406-0.051c0.2-0.069,0.339-0.263,0.376-0.46c0.016-0.082,0.01-0.145,0.039-0.221
					c0.039-0.103,0.111-0.16,0.09-0.293c-0.01-0.062-0.052-0.12-0.064-0.187c-0.022-0.114,0.002-0.224,0-0.337
					c-0.003-0.2,0.017-0.379-0.078-0.55c-0.38-0.688-1.236-0.929-1.975-0.789c-0.18,0.034-0.287,0.126-0.442,0.207
					c-0.17,0.088-0.139,0.166-0.318,0.224c-0.081,0.026-0.216,0.124-0.215,0.224c0.001,0.115,0.005,0.051,0.012,0.169
					c-0.021,0.011-0.021-0.005-0.03-0.025"/>
				<path fill="#FFFFFF" d="M61.778-56.348c0.018,0.072,0.007,0.127-0.026,0.19c-0.053,0.101-0.112,0.063-0.165,0.128
					c-0.05,0.063-0.099,0.276-0.079,0.362c-0.169,0.058-0.009,0.227-0.015,0.35c-0.002,0.05-0.041,0.105-0.045,0.161
					c-0.01,0.119,0.017,0.266,0.068,0.37c0.097,0.198,0.268,0.413,0.435,0.544c0.19,0.148,0.365,0.572,0.608,0.631
					c0.177,0.042,0.384-0.104,0.543-0.143c0.18-0.043,0.397,0.01,0.571-0.053c0.222-0.079,0.127-0.337,0.288-0.45
					c0.104-0.074,0.287-0.01,0.406-0.051c0.2-0.069,0.339-0.263,0.376-0.46c0.016-0.082,0.01-0.145,0.039-0.221
					c0.039-0.103,0.111-0.16,0.09-0.293c-0.01-0.062-0.052-0.12-0.064-0.187c-0.022-0.114,0.002-0.224,0-0.337
					c-0.003-0.2,0.017-0.379-0.078-0.55c-0.38-0.688-1.236-0.929-1.975-0.789c-0.18,0.034-0.287,0.126-0.442,0.207
					c-0.17,0.088-0.139,0.166-0.318,0.224c-0.081,0.026-0.216,0.124-0.215,0.224c0.001,0.115,0.005,0.051,0.012,0.169
					c-0.021,0.011-0.021-0.005-0.03-0.025"/>
				<path fill="#FFFFFF" d="M54.118-56.348c0.018,0.072,0.007,0.127-0.026,0.19c-0.053,0.101-0.112,0.063-0.165,0.128
					c-0.05,0.063-0.099,0.276-0.079,0.362c-0.169,0.058-0.009,0.227-0.015,0.35c-0.002,0.05-0.041,0.105-0.045,0.161
					c-0.01,0.119,0.017,0.266,0.068,0.37c0.097,0.198,0.268,0.413,0.435,0.544c0.19,0.148,0.365,0.572,0.608,0.631
					c0.177,0.042,0.384-0.104,0.543-0.143c0.18-0.043,0.397,0.01,0.571-0.053c0.222-0.079,0.127-0.337,0.288-0.45
					c0.104-0.074,0.287-0.01,0.406-0.051c0.2-0.069,0.339-0.263,0.376-0.46c0.016-0.082,0.01-0.145,0.039-0.221
					c0.039-0.103,0.111-0.16,0.09-0.293c-0.01-0.062-0.052-0.12-0.064-0.187c-0.022-0.114,0.002-0.224,0-0.337
					c-0.003-0.2,0.017-0.379-0.078-0.55c-0.38-0.688-1.236-0.929-1.975-0.789c-0.18,0.034-0.287,0.126-0.442,0.207
					c-0.17,0.088-0.139,0.166-0.318,0.224c-0.081,0.026-0.216,0.124-0.215,0.224c0.001,0.115,0.005,0.051,0.012,0.169
					c-0.021,0.011-0.021-0.005-0.03-0.025"/>
				<path fill="#FFFFFF" d="M46.458-56.348c0.018,0.072,0.007,0.127-0.026,0.19c-0.053,0.101-0.112,0.063-0.165,0.128
					c-0.05,0.063-0.099,0.276-0.079,0.362c-0.169,0.058-0.009,0.227-0.015,0.35c-0.002,0.05-0.041,0.105-0.045,0.161
					c-0.01,0.119,0.017,0.266,0.068,0.37c0.097,0.198,0.268,0.413,0.435,0.544c0.19,0.148,0.365,0.572,0.608,0.631
					c0.177,0.042,0.384-0.104,0.543-0.143c0.18-0.043,0.397,0.01,0.571-0.053c0.222-0.079,0.127-0.337,0.288-0.45
					c0.104-0.074,0.287-0.01,0.406-0.051c0.2-0.069,0.339-0.263,0.376-0.46c0.016-0.082,0.01-0.145,0.039-0.221
					c0.039-0.103,0.111-0.16,0.09-0.293c-0.01-0.062-0.052-0.12-0.064-0.187c-0.022-0.114,0.002-0.224,0-0.337
					c-0.003-0.2,0.017-0.379-0.078-0.55c-0.38-0.688-1.236-0.929-1.975-0.789c-0.18,0.034-0.287,0.126-0.442,0.207
					c-0.17,0.088-0.139,0.166-0.318,0.224c-0.081,0.026-0.216,0.124-0.215,0.224c0.001,0.115,0.005,0.051,0.012,0.169
					c-0.021,0.011-0.021-0.005-0.03-0.025"/>
				<path fill="#FFFFFF" d="M38.797-56.348c0.018,0.072,0.007,0.127-0.026,0.19c-0.053,0.101-0.112,0.063-0.165,0.128
					c-0.05,0.063-0.099,0.276-0.079,0.362c-0.169,0.058-0.009,0.227-0.015,0.35c-0.002,0.05-0.041,0.105-0.045,0.161
					c-0.01,0.119,0.017,0.266,0.068,0.37c0.097,0.198,0.268,0.413,0.435,0.544c0.19,0.148,0.365,0.572,0.608,0.631
					c0.177,0.042,0.384-0.104,0.543-0.143c0.18-0.043,0.397,0.01,0.571-0.053c0.222-0.079,0.127-0.337,0.288-0.45
					c0.104-0.074,0.287-0.01,0.406-0.051c0.2-0.069,0.339-0.263,0.376-0.46c0.016-0.082,0.01-0.145,0.039-0.221
					c0.039-0.103,0.111-0.16,0.09-0.293c-0.01-0.062-0.052-0.12-0.064-0.187c-0.022-0.114,0.002-0.224,0-0.337
					c-0.003-0.2,0.017-0.379-0.078-0.55c-0.38-0.688-1.236-0.929-1.975-0.789c-0.18,0.034-0.287,0.126-0.442,0.207
					c-0.17,0.088-0.139,0.166-0.318,0.224c-0.081,0.026-0.216,0.124-0.215,0.224c0.001,0.115,0.005,0.051,0.012,0.169
					c-0.021,0.011-0.021-0.005-0.03-0.025"/>
				<path fill="#FFFFFF" d="M31.137-56.348c0.018,0.072,0.007,0.127-0.026,0.19c-0.053,0.101-0.112,0.063-0.165,0.128
					c-0.05,0.063-0.099,0.276-0.079,0.362c-0.169,0.058-0.009,0.227-0.015,0.35c-0.002,0.05-0.041,0.105-0.045,0.161
					c-0.01,0.119,0.017,0.266,0.068,0.37c0.097,0.198,0.268,0.413,0.435,0.544c0.19,0.148,0.365,0.572,0.608,0.631
					c0.177,0.042,0.384-0.104,0.543-0.143c0.18-0.043,0.397,0.01,0.571-0.053c0.222-0.079,0.127-0.337,0.288-0.45
					c0.104-0.074,0.287-0.01,0.406-0.051c0.2-0.069,0.339-0.263,0.376-0.46c0.016-0.082,0.01-0.145,0.039-0.221
					c0.039-0.103,0.111-0.16,0.09-0.293c-0.01-0.062-0.052-0.12-0.064-0.187c-0.022-0.114,0.002-0.224,0-0.337
					c-0.003-0.2,0.017-0.379-0.078-0.55c-0.38-0.688-1.236-0.929-1.975-0.789c-0.18,0.034-0.287,0.126-0.442,0.207
					c-0.17,0.088-0.139,0.166-0.318,0.224c-0.081,0.026-0.216,0.124-0.215,0.224c0.001,0.115,0.005,0.051,0.012,0.169
					c-0.021,0.011-0.021-0.005-0.03-0.025"/>
				<path fill="#FFFFFF" d="M23.477-56.348c0.018,0.072,0.007,0.127-0.026,0.19c-0.053,0.101-0.112,0.063-0.165,0.128
					c-0.05,0.063-0.099,0.276-0.079,0.362c-0.169,0.058-0.009,0.227-0.015,0.35c-0.002,0.05-0.041,0.105-0.045,0.161
					c-0.01,0.119,0.017,0.266,0.068,0.37c0.097,0.198,0.268,0.413,0.435,0.544c0.19,0.148,0.365,0.572,0.608,0.631
					c0.177,0.042,0.384-0.104,0.543-0.143c0.18-0.043,0.397,0.01,0.571-0.053c0.222-0.079,0.127-0.337,0.288-0.45
					c0.104-0.074,0.287-0.01,0.406-0.051c0.2-0.069,0.339-0.263,0.376-0.46c0.016-0.082,0.01-0.145,0.039-0.221
					c0.039-0.103,0.111-0.16,0.09-0.293c-0.01-0.062-0.052-0.12-0.064-0.187c-0.022-0.114,0.002-0.224,0-0.337
					c-0.003-0.2,0.017-0.379-0.078-0.55c-0.38-0.688-1.236-0.929-1.975-0.789c-0.18,0.034-0.287,0.126-0.442,0.207
					c-0.17,0.088-0.139,0.166-0.318,0.224c-0.081,0.026-0.216,0.124-0.215,0.224c0.001,0.115,0.005,0.051,0.012,0.169
					c-0.021,0.011-0.021-0.005-0.03-0.025"/>
				<path fill="#FFFFFF" d="M15.816-56.348c0.018,0.072,0.007,0.127-0.026,0.19c-0.053,0.101-0.112,0.063-0.165,0.128
					c-0.05,0.063-0.099,0.276-0.079,0.362c-0.169,0.058-0.009,0.227-0.015,0.35c-0.002,0.05-0.041,0.105-0.045,0.161
					c-0.01,0.119,0.017,0.266,0.068,0.37c0.097,0.198,0.268,0.413,0.435,0.544c0.19,0.148,0.365,0.572,0.608,0.631
					c0.177,0.042,0.384-0.104,0.543-0.143c0.18-0.043,0.397,0.01,0.571-0.053c0.222-0.079,0.127-0.337,0.288-0.45
					c0.104-0.074,0.287-0.01,0.406-0.051c0.2-0.069,0.339-0.263,0.376-0.46c0.016-0.082,0.01-0.145,0.039-0.221
					c0.039-0.103,0.111-0.16,0.09-0.293c-0.01-0.062-0.052-0.12-0.064-0.187c-0.022-0.114,0.002-0.224,0-0.337
					c-0.003-0.2,0.017-0.379-0.078-0.55c-0.38-0.688-1.236-0.929-1.975-0.789c-0.18,0.034-0.287,0.126-0.442,0.207
					c-0.17,0.088-0.139,0.166-0.318,0.224c-0.081,0.026-0.216,0.124-0.215,0.224c0.001,0.115,0.005,0.051,0.012,0.169
					c-0.021,0.011-0.021-0.005-0.03-0.025"/>
				<path fill="#FFFFFF" d="M8.156-56.348c0.018,0.072,0.007,0.127-0.026,0.19c-0.053,0.101-0.112,0.063-0.165,0.128
					c-0.05,0.063-0.099,0.276-0.079,0.362c-0.169,0.058-0.009,0.227-0.015,0.35c-0.002,0.05-0.041,0.105-0.045,0.161
					c-0.01,0.119,0.017,0.266,0.068,0.37c0.097,0.198,0.268,0.413,0.435,0.544c0.19,0.148,0.365,0.572,0.608,0.631
					c0.177,0.042,0.384-0.104,0.543-0.143c0.18-0.043,0.397,0.01,0.571-0.053c0.222-0.079,0.127-0.337,0.288-0.45
					c0.104-0.074,0.287-0.01,0.406-0.051c0.2-0.069,0.339-0.263,0.376-0.46c0.016-0.082,0.01-0.145,0.039-0.221
					c0.039-0.103,0.111-0.16,0.09-0.293c-0.01-0.062-0.052-0.12-0.064-0.187c-0.022-0.114,0.002-0.224,0-0.337
					c-0.003-0.2,0.017-0.379-0.078-0.55c-0.38-0.688-1.236-0.929-1.975-0.789c-0.18,0.034-0.287,0.126-0.442,0.207
					c-0.17,0.088-0.139,0.166-0.318,0.224c-0.081,0.026-0.216,0.124-0.215,0.224c0.001,0.115,0.005,0.051,0.012,0.169
					c-0.021,0.011-0.021-0.005-0.03-0.025"/>
				<path fill="#FFFFFF" d="M0.495-56.348c0.018,0.072,0.007,0.127-0.026,0.19c-0.053,0.101-0.112,0.063-0.165,0.128
					c-0.05,0.063-0.099,0.276-0.079,0.362c-0.169,0.058-0.01,0.227-0.015,0.35c-0.002,0.05-0.041,0.105-0.045,0.161
					c-0.01,0.119,0.017,0.266,0.068,0.37c0.097,0.198,0.268,0.413,0.435,0.544c0.19,0.148,0.365,0.572,0.608,0.631
					c0.177,0.042,0.384-0.104,0.543-0.143c0.18-0.043,0.397,0.01,0.571-0.053c0.222-0.079,0.127-0.337,0.288-0.45
					c0.104-0.074,0.287-0.01,0.406-0.051c0.2-0.069,0.339-0.263,0.376-0.46c0.016-0.082,0.01-0.145,0.039-0.221
					c0.039-0.103,0.111-0.16,0.09-0.293c-0.01-0.062-0.052-0.12-0.064-0.187c-0.022-0.114,0.002-0.224,0-0.337
					c-0.003-0.2,0.017-0.379-0.078-0.55c-0.38-0.688-1.236-0.929-1.975-0.789c-0.18,0.034-0.287,0.126-0.442,0.207
					c-0.17,0.088-0.139,0.166-0.318,0.224c-0.081,0.026-0.216,0.124-0.215,0.224C0.5-56.374,0.503-56.438,0.51-56.32
					c-0.021,0.011-0.021-0.005-0.03-0.025"/>
			</g>
			<g>
				<path fill="#FFFFFF" d="M69.439-48.695c0.018,0.072,0.007,0.127-0.026,0.19c-0.053,0.101-0.112,0.063-0.165,0.128
					c-0.05,0.063-0.099,0.276-0.079,0.362c-0.169,0.058-0.01,0.227-0.015,0.35c-0.002,0.05-0.041,0.105-0.045,0.161
					c-0.01,0.119,0.017,0.266,0.068,0.37c0.097,0.198,0.268,0.413,0.435,0.544c0.19,0.148,0.365,0.572,0.608,0.631
					c0.177,0.042,0.384-0.104,0.543-0.143c0.18-0.043,0.397,0.01,0.571-0.053c0.222-0.079,0.127-0.337,0.288-0.45
					c0.104-0.074,0.287-0.01,0.406-0.051c0.2-0.069,0.339-0.263,0.376-0.46c0.016-0.082,0.01-0.145,0.039-0.221
					c0.039-0.103,0.111-0.16,0.09-0.293c-0.01-0.062-0.052-0.12-0.064-0.187c-0.022-0.114,0.002-0.224,0-0.337
					c-0.003-0.2,0.017-0.379-0.078-0.55c-0.38-0.688-1.236-0.929-1.975-0.789c-0.18,0.034-0.287,0.126-0.442,0.207
					c-0.17,0.088-0.139,0.166-0.318,0.224c-0.081,0.026-0.216,0.124-0.215,0.224c0.001,0.115,0.005,0.051,0.012,0.169
					c-0.021,0.011-0.021-0.005-0.03-0.025"/>
				<path fill="#FFFFFF" d="M61.778-48.695c0.018,0.072,0.007,0.127-0.026,0.19c-0.053,0.101-0.112,0.063-0.165,0.128
					c-0.05,0.063-0.099,0.276-0.079,0.362c-0.169,0.058-0.009,0.227-0.015,0.35c-0.002,0.05-0.041,0.105-0.045,0.161
					c-0.01,0.119,0.017,0.266,0.068,0.37c0.097,0.198,0.268,0.413,0.435,0.544c0.19,0.148,0.365,0.572,0.608,0.631
					c0.177,0.042,0.384-0.104,0.543-0.143c0.18-0.043,0.397,0.01,0.571-0.053c0.222-0.079,0.127-0.337,0.288-0.45
					c0.104-0.074,0.287-0.01,0.406-0.051c0.2-0.069,0.339-0.263,0.376-0.46c0.016-0.082,0.01-0.145,0.039-0.221
					c0.039-0.103,0.111-0.16,0.09-0.293c-0.01-0.062-0.052-0.12-0.064-0.187c-0.022-0.114,0.002-0.224,0-0.337
					c-0.003-0.2,0.017-0.379-0.078-0.55c-0.38-0.688-1.236-0.929-1.975-0.789c-0.18,0.034-0.287,0.126-0.442,0.207
					c-0.17,0.088-0.139,0.166-0.318,0.224c-0.081,0.026-0.216,0.124-0.215,0.224c0.001,0.115,0.005,0.051,0.012,0.169
					c-0.021,0.011-0.021-0.005-0.03-0.025"/>
				<path fill="#FFFFFF" d="M54.118-48.695c0.018,0.072,0.007,0.127-0.026,0.19c-0.053,0.101-0.112,0.063-0.165,0.128
					c-0.05,0.063-0.099,0.276-0.079,0.362c-0.169,0.058-0.009,0.227-0.015,0.35c-0.002,0.05-0.041,0.105-0.045,0.161
					c-0.01,0.119,0.017,0.266,0.068,0.37c0.097,0.198,0.268,0.413,0.435,0.544c0.19,0.148,0.365,0.572,0.608,0.631
					c0.177,0.042,0.384-0.104,0.543-0.143c0.18-0.043,0.397,0.01,0.571-0.053c0.222-0.079,0.127-0.337,0.288-0.45
					c0.104-0.074,0.287-0.01,0.406-0.051c0.2-0.069,0.339-0.263,0.376-0.46c0.016-0.082,0.01-0.145,0.039-0.221
					c0.039-0.103,0.111-0.16,0.09-0.293c-0.01-0.062-0.052-0.12-0.064-0.187c-0.022-0.114,0.002-0.224,0-0.337
					c-0.003-0.2,0.017-0.379-0.078-0.55c-0.38-0.688-1.236-0.929-1.975-0.789c-0.18,0.034-0.287,0.126-0.442,0.207
					c-0.17,0.088-0.139,0.166-0.318,0.224c-0.081,0.026-0.216,0.124-0.215,0.224c0.001,0.115,0.005,0.051,0.012,0.169
					c-0.021,0.011-0.021-0.005-0.03-0.025"/>
				<path fill="#FFFFFF" d="M46.458-48.695c0.018,0.072,0.007,0.127-0.026,0.19c-0.053,0.101-0.112,0.063-0.165,0.128
					c-0.05,0.063-0.099,0.276-0.079,0.362c-0.169,0.058-0.009,0.227-0.015,0.35c-0.002,0.05-0.041,0.105-0.045,0.161
					c-0.01,0.119,0.017,0.266,0.068,0.37c0.097,0.198,0.268,0.413,0.435,0.544c0.19,0.148,0.365,0.572,0.608,0.631
					c0.177,0.042,0.384-0.104,0.543-0.143c0.18-0.043,0.397,0.01,0.571-0.053c0.222-0.079,0.127-0.337,0.288-0.45
					c0.104-0.074,0.287-0.01,0.406-0.051c0.2-0.069,0.339-0.263,0.376-0.46c0.016-0.082,0.01-0.145,0.039-0.221
					c0.039-0.103,0.111-0.16,0.09-0.293c-0.01-0.062-0.052-0.12-0.064-0.187c-0.022-0.114,0.002-0.224,0-0.337
					c-0.003-0.2,0.017-0.379-0.078-0.55c-0.38-0.688-1.236-0.929-1.975-0.789c-0.18,0.034-0.287,0.126-0.442,0.207
					c-0.17,0.088-0.139,0.166-0.318,0.224c-0.081,0.026-0.216,0.124-0.215,0.224c0.001,0.115,0.005,0.051,0.012,0.169
					c-0.021,0.011-0.021-0.005-0.03-0.025"/>
				<path fill="#FFFFFF" d="M38.797-48.695c0.018,0.072,0.007,0.127-0.026,0.19c-0.053,0.101-0.112,0.063-0.165,0.128
					c-0.05,0.063-0.099,0.276-0.079,0.362c-0.169,0.058-0.009,0.227-0.015,0.35c-0.002,0.05-0.041,0.105-0.045,0.161
					c-0.01,0.119,0.017,0.266,0.068,0.37c0.097,0.198,0.268,0.413,0.435,0.544c0.19,0.148,0.365,0.572,0.608,0.631
					c0.177,0.042,0.384-0.104,0.543-0.143c0.18-0.043,0.397,0.01,0.571-0.053c0.222-0.079,0.127-0.337,0.288-0.45
					c0.104-0.074,0.287-0.01,0.406-0.051c0.2-0.069,0.339-0.263,0.376-0.46c0.016-0.082,0.01-0.145,0.039-0.221
					c0.039-0.103,0.111-0.16,0.09-0.293c-0.01-0.062-0.052-0.12-0.064-0.187c-0.022-0.114,0.002-0.224,0-0.337
					c-0.003-0.2,0.017-0.379-0.078-0.55c-0.38-0.688-1.236-0.929-1.975-0.789c-0.18,0.034-0.287,0.126-0.442,0.207
					c-0.17,0.088-0.139,0.166-0.318,0.224c-0.081,0.026-0.216,0.124-0.215,0.224c0.001,0.115,0.005,0.051,0.012,0.169
					c-0.021,0.011-0.021-0.005-0.03-0.025"/>
				<path fill="#FFFFFF" d="M31.137-48.695c0.018,0.072,0.007,0.127-0.026,0.19c-0.053,0.101-0.112,0.063-0.165,0.128
					c-0.05,0.063-0.099,0.276-0.079,0.362c-0.169,0.058-0.009,0.227-0.015,0.35c-0.002,0.05-0.041,0.105-0.045,0.161
					c-0.01,0.119,0.017,0.266,0.068,0.37c0.097,0.198,0.268,0.413,0.435,0.544c0.19,0.148,0.365,0.572,0.608,0.631
					c0.177,0.042,0.384-0.104,0.543-0.143c0.18-0.043,0.397,0.01,0.571-0.053c0.222-0.079,0.127-0.337,0.288-0.45
					c0.104-0.074,0.287-0.01,0.406-0.051c0.2-0.069,0.339-0.263,0.376-0.46c0.016-0.082,0.01-0.145,0.039-0.221
					c0.039-0.103,0.111-0.16,0.09-0.293c-0.01-0.062-0.052-0.12-0.064-0.187c-0.022-0.114,0.002-0.224,0-0.337
					c-0.003-0.2,0.017-0.379-0.078-0.55c-0.38-0.688-1.236-0.929-1.975-0.789c-0.18,0.034-0.287,0.126-0.442,0.207
					c-0.17,0.088-0.139,0.166-0.318,0.224c-0.081,0.026-0.216,0.124-0.215,0.224c0.001,0.115,0.005,0.051,0.012,0.169
					c-0.021,0.011-0.021-0.005-0.03-0.025"/>
				<path fill="#FFFFFF" d="M23.477-48.695c0.018,0.072,0.007,0.127-0.026,0.19c-0.053,0.101-0.112,0.063-0.165,0.128
					c-0.05,0.063-0.099,0.276-0.079,0.362c-0.169,0.058-0.009,0.227-0.015,0.35c-0.002,0.05-0.041,0.105-0.045,0.161
					c-0.01,0.119,0.017,0.266,0.068,0.37c0.097,0.198,0.268,0.413,0.435,0.544c0.19,0.148,0.365,0.572,0.608,0.631
					c0.177,0.042,0.384-0.104,0.543-0.143c0.18-0.043,0.397,0.01,0.571-0.053c0.222-0.079,0.127-0.337,0.288-0.45
					c0.104-0.074,0.287-0.01,0.406-0.051c0.2-0.069,0.339-0.263,0.376-0.46c0.016-0.082,0.01-0.145,0.039-0.221
					c0.039-0.103,0.111-0.16,0.09-0.293c-0.01-0.062-0.052-0.12-0.064-0.187c-0.022-0.114,0.002-0.224,0-0.337
					c-0.003-0.2,0.017-0.379-0.078-0.55c-0.38-0.688-1.236-0.929-1.975-0.789c-0.18,0.034-0.287,0.126-0.442,0.207
					c-0.17,0.088-0.139,0.166-0.318,0.224c-0.081,0.026-0.216,0.124-0.215,0.224c0.001,0.115,0.005,0.051,0.012,0.169
					c-0.021,0.011-0.021-0.005-0.03-0.025"/>
				<path fill="#FFFFFF" d="M15.816-48.695c0.018,0.072,0.007,0.127-0.026,0.19c-0.053,0.101-0.112,0.063-0.165,0.128
					c-0.05,0.063-0.099,0.276-0.079,0.362c-0.169,0.058-0.009,0.227-0.015,0.35c-0.002,0.05-0.041,0.105-0.045,0.161
					c-0.01,0.119,0.017,0.266,0.068,0.37c0.097,0.198,0.268,0.413,0.435,0.544c0.19,0.148,0.365,0.572,0.608,0.631
					c0.177,0.042,0.384-0.104,0.543-0.143c0.18-0.043,0.397,0.01,0.571-0.053c0.222-0.079,0.127-0.337,0.288-0.45
					c0.104-0.074,0.287-0.01,0.406-0.051c0.2-0.069,0.339-0.263,0.376-0.46c0.016-0.082,0.01-0.145,0.039-0.221
					c0.039-0.103,0.111-0.16,0.09-0.293c-0.01-0.062-0.052-0.12-0.064-0.187c-0.022-0.114,0.002-0.224,0-0.337
					c-0.003-0.2,0.017-0.379-0.078-0.55c-0.38-0.688-1.236-0.929-1.975-0.789c-0.18,0.034-0.287,0.126-0.442,0.207
					c-0.17,0.088-0.139,0.166-0.318,0.224c-0.081,0.026-0.216,0.124-0.215,0.224c0.001,0.115,0.005,0.051,0.012,0.169
					c-0.021,0.011-0.021-0.005-0.03-0.025"/>
				<path fill="#FFFFFF" d="M8.156-48.695c0.018,0.072,0.007,0.127-0.026,0.19c-0.053,0.101-0.112,0.063-0.165,0.128
					c-0.05,0.063-0.099,0.276-0.079,0.362c-0.169,0.058-0.009,0.227-0.015,0.35c-0.002,0.05-0.041,0.105-0.045,0.161
					c-0.01,0.119,0.017,0.266,0.068,0.37c0.097,0.198,0.268,0.413,0.435,0.544c0.19,0.148,0.365,0.572,0.608,0.631
					c0.177,0.042,0.384-0.104,0.543-0.143c0.18-0.043,0.397,0.01,0.571-0.053c0.222-0.079,0.127-0.337,0.288-0.45
					c0.104-0.074,0.287-0.01,0.406-0.051c0.2-0.069,0.339-0.263,0.376-0.46c0.016-0.082,0.01-0.145,0.039-0.221
					c0.039-0.103,0.111-0.16,0.09-0.293c-0.01-0.062-0.052-0.12-0.064-0.187c-0.022-0.114,0.002-0.224,0-0.337
					c-0.003-0.2,0.017-0.379-0.078-0.55c-0.38-0.688-1.236-0.929-1.975-0.789c-0.18,0.034-0.287,0.126-0.442,0.207
					c-0.17,0.088-0.139,0.166-0.318,0.224c-0.081,0.026-0.216,0.124-0.215,0.224c0.001,0.115,0.005,0.051,0.012,0.169
					c-0.021,0.011-0.021-0.005-0.03-0.025"/>
				<path fill="#FFFFFF" d="M0.495-48.695c0.018,0.072,0.007,0.127-0.026,0.19c-0.053,0.101-0.112,0.063-0.165,0.128
					c-0.05,0.063-0.099,0.276-0.079,0.362c-0.169,0.058-0.01,0.227-0.015,0.35c-0.002,0.05-0.041,0.105-0.045,0.161
					c-0.01,0.119,0.017,0.266,0.068,0.37c0.097,0.198,0.268,0.413,0.435,0.544c0.19,0.148,0.365,0.572,0.608,0.631
					c0.177,0.042,0.384-0.104,0.543-0.143c0.18-0.043,0.397,0.01,0.571-0.053c0.222-0.079,0.127-0.337,0.288-0.45
					c0.104-0.074,0.287-0.01,0.406-0.051c0.2-0.069,0.339-0.263,0.376-0.46c0.016-0.082,0.01-0.145,0.039-0.221
					c0.039-0.103,0.111-0.16,0.09-0.293c-0.01-0.062-0.052-0.12-0.064-0.187c-0.022-0.114,0.002-0.224,0-0.337
					c-0.003-0.2,0.017-0.379-0.078-0.55c-0.38-0.688-1.236-0.929-1.975-0.789c-0.18,0.034-0.287,0.126-0.442,0.207
					c-0.17,0.088-0.139,0.166-0.318,0.224c-0.081,0.026-0.216,0.124-0.215,0.224c0.001,0.115,0.005,0.051,0.012,0.169
					c-0.021,0.011-0.021-0.005-0.03-0.025"/>
			</g>
			<g>
				<path fill="#FFFFFF" d="M69.439-41.042c0.018,0.072,0.007,0.127-0.026,0.19c-0.053,0.101-0.112,0.063-0.165,0.128
					c-0.05,0.063-0.099,0.276-0.079,0.362c-0.169,0.058-0.01,0.227-0.015,0.35c-0.002,0.05-0.041,0.105-0.045,0.161
					c-0.01,0.119,0.017,0.266,0.068,0.37c0.097,0.198,0.268,0.413,0.435,0.544c0.19,0.148,0.365,0.572,0.608,0.631
					c0.177,0.042,0.384-0.104,0.543-0.143c0.18-0.043,0.397,0.01,0.571-0.053c0.222-0.079,0.127-0.337,0.288-0.45
					c0.104-0.074,0.287-0.01,0.406-0.051c0.2-0.069,0.339-0.263,0.376-0.46c0.016-0.082,0.01-0.145,0.039-0.221
					c0.039-0.103,0.111-0.16,0.09-0.293c-0.01-0.062-0.052-0.12-0.064-0.187c-0.022-0.114,0.002-0.224,0-0.337
					c-0.003-0.2,0.017-0.379-0.078-0.55c-0.38-0.688-1.236-0.929-1.975-0.789c-0.18,0.034-0.287,0.126-0.442,0.207
					c-0.17,0.088-0.139,0.166-0.318,0.224c-0.081,0.026-0.216,0.124-0.215,0.224c0.001,0.115,0.005,0.051,0.012,0.169
					c-0.021,0.011-0.021-0.005-0.03-0.025"/>
				<path fill="#FFFFFF" d="M61.778-41.042c0.018,0.072,0.007,0.127-0.026,0.19c-0.053,0.101-0.112,0.063-0.165,0.128
					c-0.05,0.063-0.099,0.276-0.079,0.362c-0.169,0.058-0.009,0.227-0.015,0.35c-0.002,0.05-0.041,0.105-0.045,0.161
					c-0.01,0.119,0.017,0.266,0.068,0.37c0.097,0.198,0.268,0.413,0.435,0.544c0.19,0.148,0.365,0.572,0.608,0.631
					c0.177,0.042,0.384-0.104,0.543-0.143c0.18-0.043,0.397,0.01,0.571-0.053c0.222-0.079,0.127-0.337,0.288-0.45
					c0.104-0.074,0.287-0.01,0.406-0.051c0.2-0.069,0.339-0.263,0.376-0.46c0.016-0.082,0.01-0.145,0.039-0.221
					c0.039-0.103,0.111-0.16,0.09-0.293c-0.01-0.062-0.052-0.12-0.064-0.187c-0.022-0.114,0.002-0.224,0-0.337
					c-0.003-0.2,0.017-0.379-0.078-0.55c-0.38-0.688-1.236-0.929-1.975-0.789c-0.18,0.034-0.287,0.126-0.442,0.207
					c-0.17,0.088-0.139,0.166-0.318,0.224c-0.081,0.026-0.216,0.124-0.215,0.224c0.001,0.115,0.005,0.051,0.012,0.169
					c-0.021,0.011-0.021-0.005-0.03-0.025"/>
				<path fill="#FFFFFF" d="M54.118-41.042c0.018,0.072,0.007,0.127-0.026,0.19c-0.053,0.101-0.112,0.063-0.165,0.128
					c-0.05,0.063-0.099,0.276-0.079,0.362c-0.169,0.058-0.009,0.227-0.015,0.35c-0.002,0.05-0.041,0.105-0.045,0.161
					c-0.01,0.119,0.017,0.266,0.068,0.37c0.097,0.198,0.268,0.413,0.435,0.544c0.19,0.148,0.365,0.572,0.608,0.631
					c0.177,0.042,0.384-0.104,0.543-0.143c0.18-0.043,0.397,0.01,0.571-0.053c0.222-0.079,0.127-0.337,0.288-0.45
					c0.104-0.074,0.287-0.01,0.406-0.051c0.2-0.069,0.339-0.263,0.376-0.46c0.016-0.082,0.01-0.145,0.039-0.221
					c0.039-0.103,0.111-0.16,0.09-0.293c-0.01-0.062-0.052-0.12-0.064-0.187c-0.022-0.114,0.002-0.224,0-0.337
					c-0.003-0.2,0.017-0.379-0.078-0.55c-0.38-0.688-1.236-0.929-1.975-0.789c-0.18,0.034-0.287,0.126-0.442,0.207
					c-0.17,0.088-0.139,0.166-0.318,0.224c-0.081,0.026-0.216,0.124-0.215,0.224c0.001,0.115,0.005,0.051,0.012,0.169
					c-0.021,0.011-0.021-0.005-0.03-0.025"/>
				<path fill="#FFFFFF" d="M46.458-41.042c0.018,0.072,0.007,0.127-0.026,0.19c-0.053,0.101-0.112,0.063-0.165,0.128
					c-0.05,0.063-0.099,0.276-0.079,0.362c-0.169,0.058-0.009,0.227-0.015,0.35c-0.002,0.05-0.041,0.105-0.045,0.161
					c-0.01,0.119,0.017,0.266,0.068,0.37c0.097,0.198,0.268,0.413,0.435,0.544c0.19,0.148,0.365,0.572,0.608,0.631
					c0.177,0.042,0.384-0.104,0.543-0.143c0.18-0.043,0.397,0.01,0.571-0.053c0.222-0.079,0.127-0.337,0.288-0.45
					c0.104-0.074,0.287-0.01,0.406-0.051c0.2-0.069,0.339-0.263,0.376-0.46c0.016-0.082,0.01-0.145,0.039-0.221
					c0.039-0.103,0.111-0.16,0.09-0.293c-0.01-0.062-0.052-0.12-0.064-0.187c-0.022-0.114,0.002-0.224,0-0.337
					c-0.003-0.2,0.017-0.379-0.078-0.55c-0.38-0.688-1.236-0.929-1.975-0.789c-0.18,0.034-0.287,0.126-0.442,0.207
					c-0.17,0.088-0.139,0.166-0.318,0.224c-0.081,0.026-0.216,0.124-0.215,0.224c0.001,0.115,0.005,0.051,0.012,0.169
					c-0.021,0.011-0.021-0.005-0.03-0.025"/>
				<path fill="#FFFFFF" d="M38.797-41.042c0.018,0.072,0.007,0.127-0.026,0.19c-0.053,0.101-0.112,0.063-0.165,0.128
					c-0.05,0.063-0.099,0.276-0.079,0.362c-0.169,0.058-0.009,0.227-0.015,0.35c-0.002,0.05-0.041,0.105-0.045,0.161
					c-0.01,0.119,0.017,0.266,0.068,0.37c0.097,0.198,0.268,0.413,0.435,0.544c0.19,0.148,0.365,0.572,0.608,0.631
					c0.177,0.042,0.384-0.104,0.543-0.143c0.18-0.043,0.397,0.01,0.571-0.053c0.222-0.079,0.127-0.337,0.288-0.45
					c0.104-0.074,0.287-0.01,0.406-0.051c0.2-0.069,0.339-0.263,0.376-0.46c0.016-0.082,0.01-0.145,0.039-0.221
					c0.039-0.103,0.111-0.16,0.09-0.293c-0.01-0.062-0.052-0.12-0.064-0.187c-0.022-0.114,0.002-0.224,0-0.337
					c-0.003-0.2,0.017-0.379-0.078-0.55c-0.38-0.688-1.236-0.929-1.975-0.789c-0.18,0.034-0.287,0.126-0.442,0.207
					c-0.17,0.088-0.139,0.166-0.318,0.224c-0.081,0.026-0.216,0.124-0.215,0.224c0.001,0.115,0.005,0.051,0.012,0.169
					c-0.021,0.011-0.021-0.005-0.03-0.025"/>
				<path fill="#FFFFFF" d="M31.137-41.042c0.018,0.072,0.007,0.127-0.026,0.19c-0.053,0.101-0.112,0.063-0.165,0.128
					c-0.05,0.063-0.099,0.276-0.079,0.362c-0.169,0.058-0.009,0.227-0.015,0.35c-0.002,0.05-0.041,0.105-0.045,0.161
					c-0.01,0.119,0.017,0.266,0.068,0.37c0.097,0.198,0.268,0.413,0.435,0.544c0.19,0.148,0.365,0.572,0.608,0.631
					c0.177,0.042,0.384-0.104,0.543-0.143c0.18-0.043,0.397,0.01,0.571-0.053c0.222-0.079,0.127-0.337,0.288-0.45
					c0.104-0.074,0.287-0.01,0.406-0.051c0.2-0.069,0.339-0.263,0.376-0.46c0.016-0.082,0.01-0.145,0.039-0.221
					c0.039-0.103,0.111-0.16,0.09-0.293c-0.01-0.062-0.052-0.12-0.064-0.187c-0.022-0.114,0.002-0.224,0-0.337
					c-0.003-0.2,0.017-0.379-0.078-0.55c-0.38-0.688-1.236-0.929-1.975-0.789c-0.18,0.034-0.287,0.126-0.442,0.207
					c-0.17,0.088-0.139,0.166-0.318,0.224c-0.081,0.026-0.216,0.124-0.215,0.224c0.001,0.115,0.005,0.051,0.012,0.169
					c-0.021,0.011-0.021-0.005-0.03-0.025"/>
				<path fill="#FFFFFF" d="M23.477-41.042c0.018,0.072,0.007,0.127-0.026,0.19c-0.053,0.101-0.112,0.063-0.165,0.128
					c-0.05,0.063-0.099,0.276-0.079,0.362c-0.169,0.058-0.009,0.227-0.015,0.35c-0.002,0.05-0.041,0.105-0.045,0.161
					c-0.01,0.119,0.017,0.266,0.068,0.37c0.097,0.198,0.268,0.413,0.435,0.544c0.19,0.148,0.365,0.572,0.608,0.631
					c0.177,0.042,0.384-0.104,0.543-0.143c0.18-0.043,0.397,0.01,0.571-0.053c0.222-0.079,0.127-0.337,0.288-0.45
					c0.104-0.074,0.287-0.01,0.406-0.051c0.2-0.069,0.339-0.263,0.376-0.46c0.016-0.082,0.01-0.145,0.039-0.221
					c0.039-0.103,0.111-0.16,0.09-0.293c-0.01-0.062-0.052-0.12-0.064-0.187c-0.022-0.114,0.002-0.224,0-0.337
					c-0.003-0.2,0.017-0.379-0.078-0.55c-0.38-0.688-1.236-0.929-1.975-0.789c-0.18,0.034-0.287,0.126-0.442,0.207
					c-0.17,0.088-0.139,0.166-0.318,0.224c-0.081,0.026-0.216,0.124-0.215,0.224c0.001,0.115,0.005,0.051,0.012,0.169
					c-0.021,0.011-0.021-0.005-0.03-0.025"/>
				<path fill="#FFFFFF" d="M15.816-41.042c0.018,0.072,0.007,0.127-0.026,0.19c-0.053,0.101-0.112,0.063-0.165,0.128
					c-0.05,0.063-0.099,0.276-0.079,0.362c-0.169,0.058-0.009,0.227-0.015,0.35c-0.002,0.05-0.041,0.105-0.045,0.161
					c-0.01,0.119,0.017,0.266,0.068,0.37c0.097,0.198,0.268,0.413,0.435,0.544c0.19,0.148,0.365,0.572,0.608,0.631
					c0.177,0.042,0.384-0.104,0.543-0.143c0.18-0.043,0.397,0.01,0.571-0.053c0.222-0.079,0.127-0.337,0.288-0.45
					c0.104-0.074,0.287-0.01,0.406-0.051c0.2-0.069,0.339-0.263,0.376-0.46c0.016-0.082,0.01-0.145,0.039-0.221
					c0.039-0.103,0.111-0.16,0.09-0.293c-0.01-0.062-0.052-0.12-0.064-0.187c-0.022-0.114,0.002-0.224,0-0.337
					c-0.003-0.2,0.017-0.379-0.078-0.55c-0.38-0.688-1.236-0.929-1.975-0.789c-0.18,0.034-0.287,0.126-0.442,0.207
					c-0.17,0.088-0.139,0.166-0.318,0.224c-0.081,0.026-0.216,0.124-0.215,0.224c0.001,0.115,0.005,0.051,0.012,0.169
					c-0.021,0.011-0.021-0.005-0.03-0.025"/>
				<path fill="#FFFFFF" d="M8.156-41.042c0.018,0.072,0.007,0.127-0.026,0.19c-0.053,0.101-0.112,0.063-0.165,0.128
					c-0.05,0.063-0.099,0.276-0.079,0.362c-0.169,0.058-0.009,0.227-0.015,0.35c-0.002,0.05-0.041,0.105-0.045,0.161
					c-0.01,0.119,0.017,0.266,0.068,0.37c0.097,0.198,0.268,0.413,0.435,0.544c0.19,0.148,0.365,0.572,0.608,0.631
					c0.177,0.042,0.384-0.104,0.543-0.143c0.18-0.043,0.397,0.01,0.571-0.053c0.222-0.079,0.127-0.337,0.288-0.45
					c0.104-0.074,0.287-0.01,0.406-0.051c0.2-0.069,0.339-0.263,0.376-0.46c0.016-0.082,0.01-0.145,0.039-0.221
					c0.039-0.103,0.111-0.16,0.09-0.293c-0.01-0.062-0.052-0.12-0.064-0.187c-0.022-0.114,0.002-0.224,0-0.337
					c-0.003-0.2,0.017-0.379-0.078-0.55c-0.38-0.688-1.236-0.929-1.975-0.789c-0.18,0.034-0.287,0.126-0.442,0.207
					c-0.17,0.088-0.139,0.166-0.318,0.224c-0.081,0.026-0.216,0.124-0.215,0.224c0.001,0.115,0.005,0.051,0.012,0.169
					C8.15-41.004,8.149-41.02,8.14-41.04"/>
				<path fill="#FFFFFF" d="M0.495-41.042c0.018,0.072,0.007,0.127-0.026,0.19c-0.053,0.101-0.112,0.063-0.165,0.128
					c-0.05,0.063-0.099,0.276-0.079,0.362c-0.169,0.058-0.01,0.227-0.015,0.35c-0.002,0.05-0.041,0.105-0.045,0.161
					c-0.01,0.119,0.017,0.266,0.068,0.37c0.097,0.198,0.268,0.413,0.435,0.544c0.19,0.148,0.365,0.572,0.608,0.631
					c0.177,0.042,0.384-0.104,0.543-0.143c0.18-0.043,0.397,0.01,0.571-0.053c0.222-0.079,0.127-0.337,0.288-0.45
					c0.104-0.074,0.287-0.01,0.406-0.051c0.2-0.069,0.339-0.263,0.376-0.46c0.016-0.082,0.01-0.145,0.039-0.221
					c0.039-0.103,0.111-0.16,0.09-0.293c-0.01-0.062-0.052-0.12-0.064-0.187c-0.022-0.114,0.002-0.224,0-0.337
					c-0.003-0.2,0.017-0.379-0.078-0.55c-0.38-0.688-1.236-0.929-1.975-0.789c-0.18,0.034-0.287,0.126-0.442,0.207
					c-0.17,0.088-0.139,0.166-0.318,0.224c-0.081,0.026-0.216,0.124-0.215,0.224c0.001,0.115,0.005,0.051,0.012,0.169
					c-0.021,0.011-0.021-0.005-0.03-0.025"/>
			</g>
			<g>
				<path fill="#FFFFFF" d="M69.439-33.39c0.018,0.072,0.007,0.127-0.026,0.19c-0.053,0.101-0.112,0.063-0.165,0.128
					c-0.05,0.063-0.099,0.276-0.079,0.362c-0.169,0.058-0.01,0.227-0.015,0.35c-0.002,0.05-0.041,0.105-0.045,0.161
					c-0.01,0.119,0.017,0.266,0.068,0.37c0.097,0.198,0.268,0.413,0.435,0.544c0.19,0.148,0.365,0.572,0.608,0.631
					c0.177,0.042,0.384-0.104,0.543-0.143c0.18-0.043,0.397,0.01,0.571-0.053c0.222-0.079,0.127-0.337,0.288-0.45
					c0.104-0.074,0.287-0.01,0.406-0.051c0.2-0.069,0.339-0.263,0.376-0.46c0.016-0.082,0.01-0.145,0.039-0.221
					c0.039-0.103,0.111-0.16,0.09-0.293c-0.01-0.062-0.052-0.12-0.064-0.187c-0.022-0.114,0.002-0.224,0-0.337
					c-0.003-0.2,0.017-0.379-0.078-0.55c-0.38-0.688-1.236-0.929-1.975-0.789c-0.18,0.034-0.287,0.126-0.442,0.207
					c-0.17,0.088-0.139,0.166-0.318,0.224c-0.081,0.026-0.216,0.124-0.215,0.224c0.001,0.115,0.005,0.051,0.012,0.169
					c-0.021,0.011-0.021-0.005-0.03-0.025"/>
				<path fill="#FFFFFF" d="M61.778-33.39c0.018,0.072,0.007,0.127-0.026,0.19c-0.053,0.101-0.112,0.063-0.165,0.128
					c-0.05,0.063-0.099,0.276-0.079,0.362c-0.169,0.058-0.009,0.227-0.015,0.35c-0.002,0.05-0.041,0.105-0.045,0.161
					c-0.01,0.119,0.017,0.266,0.068,0.37c0.097,0.198,0.268,0.413,0.435,0.544c0.19,0.148,0.365,0.572,0.608,0.631
					c0.177,0.042,0.384-0.104,0.543-0.143c0.18-0.043,0.397,0.01,0.571-0.053c0.222-0.079,0.127-0.337,0.288-0.45
					c0.104-0.074,0.287-0.01,0.406-0.051c0.2-0.069,0.339-0.263,0.376-0.46c0.016-0.082,0.01-0.145,0.039-0.221
					c0.039-0.103,0.111-0.16,0.09-0.293c-0.01-0.062-0.052-0.12-0.064-0.187c-0.022-0.114,0.002-0.224,0-0.337
					c-0.003-0.2,0.017-0.379-0.078-0.55c-0.38-0.688-1.236-0.929-1.975-0.789c-0.18,0.034-0.287,0.126-0.442,0.207
					c-0.17,0.088-0.139,0.166-0.318,0.224c-0.081,0.026-0.216,0.124-0.215,0.224c0.001,0.115,0.005,0.051,0.012,0.169
					c-0.021,0.011-0.021-0.005-0.03-0.025"/>
				<path fill="#FFFFFF" d="M54.118-33.39c0.018,0.072,0.007,0.127-0.026,0.19c-0.053,0.101-0.112,0.063-0.165,0.128
					c-0.05,0.063-0.099,0.276-0.079,0.362c-0.169,0.058-0.009,0.227-0.015,0.35c-0.002,0.05-0.041,0.105-0.045,0.161
					c-0.01,0.119,0.017,0.266,0.068,0.37c0.097,0.198,0.268,0.413,0.435,0.544c0.19,0.148,0.365,0.572,0.608,0.631
					c0.177,0.042,0.384-0.104,0.543-0.143c0.18-0.043,0.397,0.01,0.571-0.053c0.222-0.079,0.127-0.337,0.288-0.45
					c0.104-0.074,0.287-0.01,0.406-0.051c0.2-0.069,0.339-0.263,0.376-0.46c0.016-0.082,0.01-0.145,0.039-0.221
					c0.039-0.103,0.111-0.16,0.09-0.293c-0.01-0.062-0.052-0.12-0.064-0.187c-0.022-0.114,0.002-0.224,0-0.337
					c-0.003-0.2,0.017-0.379-0.078-0.55c-0.38-0.688-1.236-0.929-1.975-0.789c-0.18,0.034-0.287,0.126-0.442,0.207
					c-0.17,0.088-0.139,0.166-0.318,0.224c-0.081,0.026-0.216,0.124-0.215,0.224c0.001,0.115,0.005,0.051,0.012,0.169
					c-0.021,0.011-0.021-0.005-0.03-0.025"/>
				<path fill="#FFFFFF" d="M46.458-33.39c0.018,0.072,0.007,0.127-0.026,0.19c-0.053,0.101-0.112,0.063-0.165,0.128
					c-0.05,0.063-0.099,0.276-0.079,0.362c-0.169,0.058-0.009,0.227-0.015,0.35c-0.002,0.05-0.041,0.105-0.045,0.161
					c-0.01,0.119,0.017,0.266,0.068,0.37c0.097,0.198,0.268,0.413,0.435,0.544c0.19,0.148,0.365,0.572,0.608,0.631
					c0.177,0.042,0.384-0.104,0.543-0.143c0.18-0.043,0.397,0.01,0.571-0.053c0.222-0.079,0.127-0.337,0.288-0.45
					c0.104-0.074,0.287-0.01,0.406-0.051c0.2-0.069,0.339-0.263,0.376-0.46c0.016-0.082,0.01-0.145,0.039-0.221
					c0.039-0.103,0.111-0.16,0.09-0.293c-0.01-0.062-0.052-0.12-0.064-0.187c-0.022-0.114,0.002-0.224,0-0.337
					c-0.003-0.2,0.017-0.379-0.078-0.55c-0.38-0.688-1.236-0.929-1.975-0.789c-0.18,0.034-0.287,0.126-0.442,0.207
					c-0.17,0.088-0.139,0.166-0.318,0.224c-0.081,0.026-0.216,0.124-0.215,0.224c0.001,0.115,0.005,0.051,0.012,0.169
					c-0.021,0.011-0.021-0.005-0.03-0.025"/>
				<path fill="#FFFFFF" d="M38.797-33.39c0.018,0.072,0.007,0.127-0.026,0.19c-0.053,0.101-0.112,0.063-0.165,0.128
					c-0.05,0.063-0.099,0.276-0.079,0.362c-0.169,0.058-0.009,0.227-0.015,0.35c-0.002,0.05-0.041,0.105-0.045,0.161
					c-0.01,0.119,0.017,0.266,0.068,0.37c0.097,0.198,0.268,0.413,0.435,0.544c0.19,0.148,0.365,0.572,0.608,0.631
					c0.177,0.042,0.384-0.104,0.543-0.143c0.18-0.043,0.397,0.01,0.571-0.053c0.222-0.079,0.127-0.337,0.288-0.45
					c0.104-0.074,0.287-0.01,0.406-0.051c0.2-0.069,0.339-0.263,0.376-0.46c0.016-0.082,0.01-0.145,0.039-0.221
					c0.039-0.103,0.111-0.16,0.09-0.293c-0.01-0.062-0.052-0.12-0.064-0.187c-0.022-0.114,0.002-0.224,0-0.337
					c-0.003-0.2,0.017-0.379-0.078-0.55c-0.38-0.688-1.236-0.929-1.975-0.789c-0.18,0.034-0.287,0.126-0.442,0.207
					c-0.17,0.088-0.139,0.166-0.318,0.224c-0.081,0.026-0.216,0.124-0.215,0.224c0.001,0.115,0.005,0.051,0.012,0.169
					c-0.021,0.011-0.021-0.005-0.03-0.025"/>
				<path fill="#FFFFFF" d="M31.137-33.39c0.018,0.072,0.007,0.127-0.026,0.19c-0.053,0.101-0.112,0.063-0.165,0.128
					c-0.05,0.063-0.099,0.276-0.079,0.362c-0.169,0.058-0.009,0.227-0.015,0.35c-0.002,0.05-0.041,0.105-0.045,0.161
					c-0.01,0.119,0.017,0.266,0.068,0.37c0.097,0.198,0.268,0.413,0.435,0.544c0.19,0.148,0.365,0.572,0.608,0.631
					c0.177,0.042,0.384-0.104,0.543-0.143c0.18-0.043,0.397,0.01,0.571-0.053c0.222-0.079,0.127-0.337,0.288-0.45
					c0.104-0.074,0.287-0.01,0.406-0.051c0.2-0.069,0.339-0.263,0.376-0.46c0.016-0.082,0.01-0.145,0.039-0.221
					c0.039-0.103,0.111-0.16,0.09-0.293c-0.01-0.062-0.052-0.12-0.064-0.187c-0.022-0.114,0.002-0.224,0-0.337
					c-0.003-0.2,0.017-0.379-0.078-0.55c-0.38-0.688-1.236-0.929-1.975-0.789c-0.18,0.034-0.287,0.126-0.442,0.207
					c-0.17,0.088-0.139,0.166-0.318,0.224c-0.081,0.026-0.216,0.124-0.215,0.224c0.001,0.115,0.005,0.051,0.012,0.169
					c-0.021,0.011-0.021-0.005-0.03-0.025"/>
				<path fill="#FFFFFF" d="M23.477-33.39c0.018,0.072,0.007,0.127-0.026,0.19c-0.053,0.101-0.112,0.063-0.165,0.128
					c-0.05,0.063-0.099,0.276-0.079,0.362c-0.169,0.058-0.009,0.227-0.015,0.35c-0.002,0.05-0.041,0.105-0.045,0.161
					c-0.01,0.119,0.017,0.266,0.068,0.37c0.097,0.198,0.268,0.413,0.435,0.544c0.19,0.148,0.365,0.572,0.608,0.631
					c0.177,0.042,0.384-0.104,0.543-0.143c0.18-0.043,0.397,0.01,0.571-0.053c0.222-0.079,0.127-0.337,0.288-0.45
					c0.104-0.074,0.287-0.01,0.406-0.051c0.2-0.069,0.339-0.263,0.376-0.46c0.016-0.082,0.01-0.145,0.039-0.221
					c0.039-0.103,0.111-0.16,0.09-0.293c-0.01-0.062-0.052-0.12-0.064-0.187c-0.022-0.114,0.002-0.224,0-0.337
					c-0.003-0.2,0.017-0.379-0.078-0.55c-0.38-0.688-1.236-0.929-1.975-0.789c-0.18,0.034-0.287,0.126-0.442,0.207
					c-0.17,0.088-0.139,0.166-0.318,0.224c-0.081,0.026-0.216,0.124-0.215,0.224c0.001,0.115,0.005,0.051,0.012,0.169
					c-0.021,0.011-0.021-0.005-0.03-0.025"/>
				<path fill="#FFFFFF" d="M15.816-33.39c0.018,0.072,0.007,0.127-0.026,0.19c-0.053,0.101-0.112,0.063-0.165,0.128
					c-0.05,0.063-0.099,0.276-0.079,0.362c-0.169,0.058-0.009,0.227-0.015,0.35c-0.002,0.05-0.041,0.105-0.045,0.161
					c-0.01,0.119,0.017,0.266,0.068,0.37c0.097,0.198,0.268,0.413,0.435,0.544c0.19,0.148,0.365,0.572,0.608,0.631
					c0.177,0.042,0.384-0.104,0.543-0.143c0.18-0.043,0.397,0.01,0.571-0.053c0.222-0.079,0.127-0.337,0.288-0.45
					c0.104-0.074,0.287-0.01,0.406-0.051c0.2-0.069,0.339-0.263,0.376-0.46c0.016-0.082,0.01-0.145,0.039-0.221
					c0.039-0.103,0.111-0.16,0.09-0.293c-0.01-0.062-0.052-0.12-0.064-0.187c-0.022-0.114,0.002-0.224,0-0.337
					c-0.003-0.2,0.017-0.379-0.078-0.55c-0.38-0.688-1.236-0.929-1.975-0.789c-0.18,0.034-0.287,0.126-0.442,0.207
					c-0.17,0.088-0.139,0.166-0.318,0.224c-0.081,0.026-0.216,0.124-0.215,0.224c0.001,0.115,0.005,0.051,0.012,0.169
					c-0.021,0.011-0.021-0.005-0.03-0.025"/>
				<path fill="#FFFFFF" d="M8.156-33.39c0.018,0.072,0.007,0.127-0.026,0.19c-0.053,0.101-0.112,0.063-0.165,0.128
					c-0.05,0.063-0.099,0.276-0.079,0.362c-0.169,0.058-0.009,0.227-0.015,0.35c-0.002,0.05-0.041,0.105-0.045,0.161
					c-0.01,0.119,0.017,0.266,0.068,0.37c0.097,0.198,0.268,0.413,0.435,0.544c0.19,0.148,0.365,0.572,0.608,0.631
					c0.177,0.042,0.384-0.104,0.543-0.143c0.18-0.043,0.397,0.01,0.571-0.053c0.222-0.079,0.127-0.337,0.288-0.45
					c0.104-0.074,0.287-0.01,0.406-0.051c0.2-0.069,0.339-0.263,0.376-0.46c0.016-0.082,0.01-0.145,0.039-0.221
					c0.039-0.103,0.111-0.16,0.09-0.293c-0.01-0.062-0.052-0.12-0.064-0.187c-0.022-0.114,0.002-0.224,0-0.337
					c-0.003-0.2,0.017-0.379-0.078-0.55c-0.38-0.688-1.236-0.929-1.975-0.789c-0.18,0.034-0.287,0.126-0.442,0.207
					c-0.17,0.088-0.139,0.166-0.318,0.224c-0.081,0.026-0.216,0.124-0.215,0.224c0.001,0.115,0.005,0.051,0.012,0.169
					c-0.021,0.011-0.021-0.005-0.03-0.025"/>
				<path fill="#FFFFFF" d="M0.495-33.39c0.018,0.072,0.007,0.127-0.026,0.19c-0.053,0.101-0.112,0.063-0.165,0.128
					c-0.05,0.063-0.099,0.276-0.079,0.362c-0.169,0.058-0.01,0.227-0.015,0.35c-0.002,0.05-0.041,0.105-0.045,0.161
					c-0.01,0.119,0.017,0.266,0.068,0.37c0.097,0.198,0.268,0.413,0.435,0.544c0.19,0.148,0.365,0.572,0.608,0.631
					c0.177,0.042,0.384-0.104,0.543-0.143c0.18-0.043,0.397,0.01,0.571-0.053c0.222-0.079,0.127-0.337,0.288-0.45
					c0.104-0.074,0.287-0.01,0.406-0.051c0.2-0.069,0.339-0.263,0.376-0.46c0.016-0.082,0.01-0.145,0.039-0.221
					c0.039-0.103,0.111-0.16,0.09-0.293c-0.01-0.062-0.052-0.12-0.064-0.187c-0.022-0.114,0.002-0.224,0-0.337
					c-0.003-0.2,0.017-0.379-0.078-0.55c-0.38-0.688-1.236-0.929-1.975-0.789c-0.18,0.034-0.287,0.126-0.442,0.207
					c-0.17,0.088-0.139,0.166-0.318,0.224c-0.081,0.026-0.216,0.124-0.215,0.224C0.5-33.416,0.503-33.48,0.51-33.362
					c-0.021,0.011-0.021-0.005-0.03-0.025"/>
			</g>
			<g>
				<path fill="#FFFFFF" d="M69.439-25.736c0.018,0.072,0.007,0.127-0.026,0.19c-0.053,0.101-0.112,0.063-0.165,0.128
					c-0.05,0.063-0.099,0.276-0.079,0.362c-0.169,0.058-0.01,0.227-0.015,0.35c-0.002,0.05-0.041,0.105-0.045,0.161
					c-0.01,0.119,0.017,0.266,0.068,0.37c0.097,0.198,0.268,0.413,0.435,0.544c0.19,0.148,0.365,0.572,0.608,0.631
					c0.177,0.042,0.384-0.104,0.543-0.143c0.18-0.043,0.397,0.01,0.571-0.053c0.222-0.079,0.127-0.337,0.288-0.45
					c0.104-0.074,0.287-0.01,0.406-0.051c0.2-0.069,0.339-0.263,0.376-0.46c0.016-0.082,0.01-0.145,0.039-0.221
					c0.039-0.103,0.111-0.16,0.09-0.293c-0.01-0.062-0.052-0.12-0.064-0.187c-0.022-0.114,0.002-0.224,0-0.337
					c-0.003-0.2,0.017-0.379-0.078-0.55c-0.38-0.688-1.236-0.929-1.975-0.789c-0.18,0.034-0.287,0.126-0.442,0.207
					c-0.17,0.088-0.139,0.166-0.318,0.224c-0.081,0.026-0.216,0.124-0.215,0.224c0.001,0.115,0.005,0.051,0.012,0.169
					c-0.021,0.011-0.021-0.005-0.03-0.025"/>
				<path fill="#FFFFFF" d="M61.778-25.736c0.018,0.072,0.007,0.127-0.026,0.19c-0.053,0.101-0.112,0.063-0.165,0.128
					c-0.05,0.063-0.099,0.276-0.079,0.362c-0.169,0.058-0.009,0.227-0.015,0.35c-0.002,0.05-0.041,0.105-0.045,0.161
					c-0.01,0.119,0.017,0.266,0.068,0.37c0.097,0.198,0.268,0.413,0.435,0.544c0.19,0.148,0.365,0.572,0.608,0.631
					c0.177,0.042,0.384-0.104,0.543-0.143c0.18-0.043,0.397,0.01,0.571-0.053c0.222-0.079,0.127-0.337,0.288-0.45
					c0.104-0.074,0.287-0.01,0.406-0.051c0.2-0.069,0.339-0.263,0.376-0.46c0.016-0.082,0.01-0.145,0.039-0.221
					c0.039-0.103,0.111-0.16,0.09-0.293c-0.01-0.062-0.052-0.12-0.064-0.187c-0.022-0.114,0.002-0.224,0-0.337
					c-0.003-0.2,0.017-0.379-0.078-0.55c-0.38-0.688-1.236-0.929-1.975-0.789c-0.18,0.034-0.287,0.126-0.442,0.207
					c-0.17,0.088-0.139,0.166-0.318,0.224c-0.081,0.026-0.216,0.124-0.215,0.224c0.001,0.115,0.005,0.051,0.012,0.169
					c-0.021,0.011-0.021-0.005-0.03-0.025"/>
				<path fill="#FFFFFF" d="M54.118-25.736c0.018,0.072,0.007,0.127-0.026,0.19c-0.053,0.101-0.112,0.063-0.165,0.128
					c-0.05,0.063-0.099,0.276-0.079,0.362c-0.169,0.058-0.009,0.227-0.015,0.35c-0.002,0.05-0.041,0.105-0.045,0.161
					c-0.01,0.119,0.017,0.266,0.068,0.37c0.097,0.198,0.268,0.413,0.435,0.544c0.19,0.148,0.365,0.572,0.608,0.631
					c0.177,0.042,0.384-0.104,0.543-0.143c0.18-0.043,0.397,0.01,0.571-0.053c0.222-0.079,0.127-0.337,0.288-0.45
					c0.104-0.074,0.287-0.01,0.406-0.051c0.2-0.069,0.339-0.263,0.376-0.46c0.016-0.082,0.01-0.145,0.039-0.221
					c0.039-0.103,0.111-0.16,0.09-0.293c-0.01-0.062-0.052-0.12-0.064-0.187c-0.022-0.114,0.002-0.224,0-0.337
					c-0.003-0.2,0.017-0.379-0.078-0.55c-0.38-0.688-1.236-0.929-1.975-0.789c-0.18,0.034-0.287,0.126-0.442,0.207
					c-0.17,0.088-0.139,0.166-0.318,0.224c-0.081,0.026-0.216,0.124-0.215,0.224c0.001,0.115,0.005,0.051,0.012,0.169
					c-0.021,0.011-0.021-0.005-0.03-0.025"/>
				<path fill="#FFFFFF" d="M46.458-25.736c0.018,0.072,0.007,0.127-0.026,0.19c-0.053,0.101-0.112,0.063-0.165,0.128
					c-0.05,0.063-0.099,0.276-0.079,0.362c-0.169,0.058-0.009,0.227-0.015,0.35c-0.002,0.05-0.041,0.105-0.045,0.161
					c-0.01,0.119,0.017,0.266,0.068,0.37c0.097,0.198,0.268,0.413,0.435,0.544c0.19,0.148,0.365,0.572,0.608,0.631
					c0.177,0.042,0.384-0.104,0.543-0.143c0.18-0.043,0.397,0.01,0.571-0.053c0.222-0.079,0.127-0.337,0.288-0.45
					c0.104-0.074,0.287-0.01,0.406-0.051c0.2-0.069,0.339-0.263,0.376-0.46c0.016-0.082,0.01-0.145,0.039-0.221
					c0.039-0.103,0.111-0.16,0.09-0.293c-0.01-0.062-0.052-0.12-0.064-0.187c-0.022-0.114,0.002-0.224,0-0.337
					c-0.003-0.2,0.017-0.379-0.078-0.55c-0.38-0.688-1.236-0.929-1.975-0.789c-0.18,0.034-0.287,0.126-0.442,0.207
					c-0.17,0.088-0.139,0.166-0.318,0.224c-0.081,0.026-0.216,0.124-0.215,0.224c0.001,0.115,0.005,0.051,0.012,0.169
					c-0.021,0.011-0.021-0.005-0.03-0.025"/>
				<path fill="#FFFFFF" d="M38.797-25.736c0.018,0.072,0.007,0.127-0.026,0.19c-0.053,0.101-0.112,0.063-0.165,0.128
					c-0.05,0.063-0.099,0.276-0.079,0.362c-0.169,0.058-0.009,0.227-0.015,0.35c-0.002,0.05-0.041,0.105-0.045,0.161
					c-0.01,0.119,0.017,0.266,0.068,0.37c0.097,0.198,0.268,0.413,0.435,0.544c0.19,0.148,0.365,0.572,0.608,0.631
					c0.177,0.042,0.384-0.104,0.543-0.143c0.18-0.043,0.397,0.01,0.571-0.053c0.222-0.079,0.127-0.337,0.288-0.45
					c0.104-0.074,0.287-0.01,0.406-0.051c0.2-0.069,0.339-0.263,0.376-0.46c0.016-0.082,0.01-0.145,0.039-0.221
					c0.039-0.103,0.111-0.16,0.09-0.293c-0.01-0.062-0.052-0.12-0.064-0.187c-0.022-0.114,0.002-0.224,0-0.337
					c-0.003-0.2,0.017-0.379-0.078-0.55c-0.38-0.688-1.236-0.929-1.975-0.789c-0.18,0.034-0.287,0.126-0.442,0.207
					c-0.17,0.088-0.139,0.166-0.318,0.224c-0.081,0.026-0.216,0.124-0.215,0.224c0.001,0.115,0.005,0.051,0.012,0.169
					c-0.021,0.011-0.021-0.005-0.03-0.025"/>
				<path fill="#FFFFFF" d="M31.137-25.736c0.018,0.072,0.007,0.127-0.026,0.19c-0.053,0.101-0.112,0.063-0.165,0.128
					c-0.05,0.063-0.099,0.276-0.079,0.362c-0.169,0.058-0.009,0.227-0.015,0.35c-0.002,0.05-0.041,0.105-0.045,0.161
					c-0.01,0.119,0.017,0.266,0.068,0.37c0.097,0.198,0.268,0.413,0.435,0.544c0.19,0.148,0.365,0.572,0.608,0.631
					c0.177,0.042,0.384-0.104,0.543-0.143c0.18-0.043,0.397,0.01,0.571-0.053c0.222-0.079,0.127-0.337,0.288-0.45
					c0.104-0.074,0.287-0.01,0.406-0.051c0.2-0.069,0.339-0.263,0.376-0.46c0.016-0.082,0.01-0.145,0.039-0.221
					c0.039-0.103,0.111-0.16,0.09-0.293c-0.01-0.062-0.052-0.12-0.064-0.187c-0.022-0.114,0.002-0.224,0-0.337
					c-0.003-0.2,0.017-0.379-0.078-0.55c-0.38-0.688-1.236-0.929-1.975-0.789c-0.18,0.034-0.287,0.126-0.442,0.207
					c-0.17,0.088-0.139,0.166-0.318,0.224c-0.081,0.026-0.216,0.124-0.215,0.224c0.001,0.115,0.005,0.051,0.012,0.169
					c-0.021,0.011-0.021-0.005-0.03-0.025"/>
				<path fill="#FFFFFF" d="M23.477-25.736c0.018,0.072,0.007,0.127-0.026,0.19c-0.053,0.101-0.112,0.063-0.165,0.128
					c-0.05,0.063-0.099,0.276-0.079,0.362c-0.169,0.058-0.009,0.227-0.015,0.35c-0.002,0.05-0.041,0.105-0.045,0.161
					c-0.01,0.119,0.017,0.266,0.068,0.37c0.097,0.198,0.268,0.413,0.435,0.544c0.19,0.148,0.365,0.572,0.608,0.631
					c0.177,0.042,0.384-0.104,0.543-0.143c0.18-0.043,0.397,0.01,0.571-0.053c0.222-0.079,0.127-0.337,0.288-0.45
					c0.104-0.074,0.287-0.01,0.406-0.051c0.2-0.069,0.339-0.263,0.376-0.46c0.016-0.082,0.01-0.145,0.039-0.221
					c0.039-0.103,0.111-0.16,0.09-0.293c-0.01-0.062-0.052-0.12-0.064-0.187c-0.022-0.114,0.002-0.224,0-0.337
					c-0.003-0.2,0.017-0.379-0.078-0.55c-0.38-0.688-1.236-0.929-1.975-0.789c-0.18,0.034-0.287,0.126-0.442,0.207
					c-0.17,0.088-0.139,0.166-0.318,0.224c-0.081,0.026-0.216,0.124-0.215,0.224c0.001,0.115,0.005,0.051,0.012,0.169
					c-0.021,0.011-0.021-0.005-0.03-0.025"/>
				<path fill="#FFFFFF" d="M15.816-25.736c0.018,0.072,0.007,0.127-0.026,0.19c-0.053,0.101-0.112,0.063-0.165,0.128
					c-0.05,0.063-0.099,0.276-0.079,0.362c-0.169,0.058-0.009,0.227-0.015,0.35c-0.002,0.05-0.041,0.105-0.045,0.161
					c-0.01,0.119,0.017,0.266,0.068,0.37c0.097,0.198,0.268,0.413,0.435,0.544c0.19,0.148,0.365,0.572,0.608,0.631
					c0.177,0.042,0.384-0.104,0.543-0.143c0.18-0.043,0.397,0.01,0.571-0.053c0.222-0.079,0.127-0.337,0.288-0.45
					c0.104-0.074,0.287-0.01,0.406-0.051c0.2-0.069,0.339-0.263,0.376-0.46c0.016-0.082,0.01-0.145,0.039-0.221
					c0.039-0.103,0.111-0.16,0.09-0.293c-0.01-0.062-0.052-0.12-0.064-0.187c-0.022-0.114,0.002-0.224,0-0.337
					c-0.003-0.2,0.017-0.379-0.078-0.55c-0.38-0.688-1.236-0.929-1.975-0.789c-0.18,0.034-0.287,0.126-0.442,0.207
					c-0.17,0.088-0.139,0.166-0.318,0.224c-0.081,0.026-0.216,0.124-0.215,0.224c0.001,0.115,0.005,0.051,0.012,0.169
					c-0.021,0.011-0.021-0.005-0.03-0.025"/>
				<path fill="#FFFFFF" d="M8.156-25.736c0.018,0.072,0.007,0.127-0.026,0.19c-0.053,0.101-0.112,0.063-0.165,0.128
					c-0.05,0.063-0.099,0.276-0.079,0.362c-0.169,0.058-0.009,0.227-0.015,0.35c-0.002,0.05-0.041,0.105-0.045,0.161
					c-0.01,0.119,0.017,0.266,0.068,0.37c0.097,0.198,0.268,0.413,0.435,0.544c0.19,0.148,0.365,0.572,0.608,0.631
					c0.177,0.042,0.384-0.104,0.543-0.143c0.18-0.043,0.397,0.01,0.571-0.053c0.222-0.079,0.127-0.337,0.288-0.45
					c0.104-0.074,0.287-0.01,0.406-0.051c0.2-0.069,0.339-0.263,0.376-0.46c0.016-0.082,0.01-0.145,0.039-0.221
					c0.039-0.103,0.111-0.16,0.09-0.293c-0.01-0.062-0.052-0.12-0.064-0.187c-0.022-0.114,0.002-0.224,0-0.337
					c-0.003-0.2,0.017-0.379-0.078-0.55c-0.38-0.688-1.236-0.929-1.975-0.789c-0.18,0.034-0.287,0.126-0.442,0.207
					c-0.17,0.088-0.139,0.166-0.318,0.224c-0.081,0.026-0.216,0.124-0.215,0.224c0.001,0.115,0.005,0.051,0.012,0.169
					c-0.021,0.011-0.021-0.005-0.03-0.025"/>
				<path fill="#FFFFFF" d="M0.495-25.736c0.018,0.072,0.007,0.127-0.026,0.19c-0.053,0.101-0.112,0.063-0.165,0.128
					c-0.05,0.063-0.099,0.276-0.079,0.362c-0.169,0.058-0.01,0.227-0.015,0.35c-0.002,0.05-0.041,0.105-0.045,0.161
					c-0.01,0.119,0.017,0.266,0.068,0.37c0.097,0.198,0.268,0.413,0.435,0.544c0.19,0.148,0.365,0.572,0.608,0.631
					c0.177,0.042,0.384-0.104,0.543-0.143c0.18-0.043,0.397,0.01,0.571-0.053c0.222-0.079,0.127-0.337,0.288-0.45
					c0.104-0.074,0.287-0.01,0.406-0.051c0.2-0.069,0.339-0.263,0.376-0.46c0.016-0.082,0.01-0.145,0.039-0.221
					c0.039-0.103,0.111-0.16,0.09-0.293c-0.01-0.062-0.052-0.12-0.064-0.187c-0.022-0.114,0.002-0.224,0-0.337
					c-0.003-0.2,0.017-0.379-0.078-0.55c-0.38-0.688-1.236-0.929-1.975-0.789c-0.18,0.034-0.287,0.126-0.442,0.207
					c-0.17,0.088-0.139,0.166-0.318,0.224c-0.081,0.026-0.216,0.124-0.215,0.224c0.001,0.115,0.005,0.051,0.012,0.169
					c-0.021,0.011-0.021-0.005-0.03-0.025"/>
			</g>
			<g>
				<path fill="#FFFFFF" d="M69.439-18.084c0.018,0.072,0.007,0.127-0.026,0.19c-0.053,0.101-0.112,0.063-0.165,0.128
					c-0.05,0.063-0.099,0.276-0.079,0.362c-0.169,0.058-0.01,0.227-0.015,0.35c-0.002,0.05-0.041,0.105-0.045,0.161
					c-0.01,0.119,0.017,0.266,0.068,0.37c0.097,0.198,0.268,0.413,0.435,0.544c0.19,0.148,0.365,0.572,0.608,0.631
					c0.177,0.042,0.384-0.104,0.543-0.143c0.18-0.043,0.397,0.01,0.571-0.053c0.222-0.079,0.127-0.337,0.288-0.45
					c0.104-0.074,0.287-0.01,0.406-0.051c0.2-0.069,0.339-0.263,0.376-0.46c0.016-0.082,0.01-0.145,0.039-0.221
					c0.039-0.103,0.111-0.16,0.09-0.293c-0.01-0.062-0.052-0.12-0.064-0.187c-0.022-0.114,0.002-0.224,0-0.337
					c-0.003-0.2,0.017-0.379-0.078-0.55c-0.38-0.688-1.236-0.929-1.975-0.789c-0.18,0.034-0.287,0.126-0.442,0.207
					c-0.17,0.088-0.139,0.166-0.318,0.224c-0.081,0.026-0.216,0.124-0.215,0.224c0.001,0.115,0.005,0.051,0.012,0.169
					c-0.021,0.011-0.021-0.005-0.03-0.025"/>
				<path fill="#FFFFFF" d="M61.778-18.084c0.018,0.072,0.007,0.127-0.026,0.19c-0.053,0.101-0.112,0.063-0.165,0.128
					c-0.05,0.063-0.099,0.276-0.079,0.362c-0.169,0.058-0.009,0.227-0.015,0.35c-0.002,0.05-0.041,0.105-0.045,0.161
					c-0.01,0.119,0.017,0.266,0.068,0.37c0.097,0.198,0.268,0.413,0.435,0.544c0.19,0.148,0.365,0.572,0.608,0.631
					c0.177,0.042,0.384-0.104,0.543-0.143c0.18-0.043,0.397,0.01,0.571-0.053c0.222-0.079,0.127-0.337,0.288-0.45
					c0.104-0.074,0.287-0.01,0.406-0.051c0.2-0.069,0.339-0.263,0.376-0.46c0.016-0.082,0.01-0.145,0.039-0.221
					c0.039-0.103,0.111-0.16,0.09-0.293c-0.01-0.062-0.052-0.12-0.064-0.187c-0.022-0.114,0.002-0.224,0-0.337
					c-0.003-0.2,0.017-0.379-0.078-0.55c-0.38-0.688-1.236-0.929-1.975-0.789c-0.18,0.034-0.287,0.126-0.442,0.207
					c-0.17,0.088-0.139,0.166-0.318,0.224c-0.081,0.026-0.216,0.124-0.215,0.224c0.001,0.115,0.005,0.051,0.012,0.169
					c-0.021,0.011-0.021-0.005-0.03-0.025"/>
				<path fill="#FFFFFF" d="M54.118-18.084c0.018,0.072,0.007,0.127-0.026,0.19c-0.053,0.101-0.112,0.063-0.165,0.128
					c-0.05,0.063-0.099,0.276-0.079,0.362c-0.169,0.058-0.009,0.227-0.015,0.35c-0.002,0.05-0.041,0.105-0.045,0.161
					c-0.01,0.119,0.017,0.266,0.068,0.37c0.097,0.198,0.268,0.413,0.435,0.544c0.19,0.148,0.365,0.572,0.608,0.631
					c0.177,0.042,0.384-0.104,0.543-0.143c0.18-0.043,0.397,0.01,0.571-0.053c0.222-0.079,0.127-0.337,0.288-0.45
					c0.104-0.074,0.287-0.01,0.406-0.051c0.2-0.069,0.339-0.263,0.376-0.46c0.016-0.082,0.01-0.145,0.039-0.221
					c0.039-0.103,0.111-0.16,0.09-0.293c-0.01-0.062-0.052-0.12-0.064-0.187c-0.022-0.114,0.002-0.224,0-0.337
					c-0.003-0.2,0.017-0.379-0.078-0.55c-0.38-0.688-1.236-0.929-1.975-0.789c-0.18,0.034-0.287,0.126-0.442,0.207
					c-0.17,0.088-0.139,0.166-0.318,0.224c-0.081,0.026-0.216,0.124-0.215,0.224c0.001,0.115,0.005,0.051,0.012,0.169
					c-0.021,0.011-0.021-0.005-0.03-0.025"/>
				<path fill="#FFFFFF" d="M46.458-18.084c0.018,0.072,0.007,0.127-0.026,0.19c-0.053,0.101-0.112,0.063-0.165,0.128
					c-0.05,0.063-0.099,0.276-0.079,0.362c-0.169,0.058-0.009,0.227-0.015,0.35c-0.002,0.05-0.041,0.105-0.045,0.161
					c-0.01,0.119,0.017,0.266,0.068,0.37c0.097,0.198,0.268,0.413,0.435,0.544c0.19,0.148,0.365,0.572,0.608,0.631
					c0.177,0.042,0.384-0.104,0.543-0.143c0.18-0.043,0.397,0.01,0.571-0.053c0.222-0.079,0.127-0.337,0.288-0.45
					c0.104-0.074,0.287-0.01,0.406-0.051c0.2-0.069,0.339-0.263,0.376-0.46c0.016-0.082,0.01-0.145,0.039-0.221
					c0.039-0.103,0.111-0.16,0.09-0.293c-0.01-0.062-0.052-0.12-0.064-0.187c-0.022-0.114,0.002-0.224,0-0.337
					c-0.003-0.2,0.017-0.379-0.078-0.55c-0.38-0.688-1.236-0.929-1.975-0.789c-0.18,0.034-0.287,0.126-0.442,0.207
					c-0.17,0.088-0.139,0.166-0.318,0.224c-0.081,0.026-0.216,0.124-0.215,0.224c0.001,0.115,0.005,0.051,0.012,0.169
					c-0.021,0.011-0.021-0.005-0.03-0.025"/>
				<path fill="#FFFFFF" d="M38.797-18.084c0.018,0.072,0.007,0.127-0.026,0.19c-0.053,0.101-0.112,0.063-0.165,0.128
					c-0.05,0.063-0.099,0.276-0.079,0.362c-0.169,0.058-0.009,0.227-0.015,0.35c-0.002,0.05-0.041,0.105-0.045,0.161
					c-0.01,0.119,0.017,0.266,0.068,0.37c0.097,0.198,0.268,0.413,0.435,0.544c0.19,0.148,0.365,0.572,0.608,0.631
					c0.177,0.042,0.384-0.104,0.543-0.143c0.18-0.043,0.397,0.01,0.571-0.053c0.222-0.079,0.127-0.337,0.288-0.45
					c0.104-0.074,0.287-0.01,0.406-0.051c0.2-0.069,0.339-0.263,0.376-0.46c0.016-0.082,0.01-0.145,0.039-0.221
					c0.039-0.103,0.111-0.16,0.09-0.293c-0.01-0.062-0.052-0.12-0.064-0.187c-0.022-0.114,0.002-0.224,0-0.337
					c-0.003-0.2,0.017-0.379-0.078-0.55c-0.38-0.688-1.236-0.929-1.975-0.789c-0.18,0.034-0.287,0.126-0.442,0.207
					c-0.17,0.088-0.139,0.166-0.318,0.224c-0.081,0.026-0.216,0.124-0.215,0.224c0.001,0.115,0.005,0.051,0.012,0.169
					c-0.021,0.011-0.021-0.005-0.03-0.025"/>
				<path fill="#FFFFFF" d="M31.137-18.084c0.018,0.072,0.007,0.127-0.026,0.19c-0.053,0.101-0.112,0.063-0.165,0.128
					c-0.05,0.063-0.099,0.276-0.079,0.362c-0.169,0.058-0.009,0.227-0.015,0.35c-0.002,0.05-0.041,0.105-0.045,0.161
					c-0.01,0.119,0.017,0.266,0.068,0.37c0.097,0.198,0.268,0.413,0.435,0.544c0.19,0.148,0.365,0.572,0.608,0.631
					c0.177,0.042,0.384-0.104,0.543-0.143c0.18-0.043,0.397,0.01,0.571-0.053c0.222-0.079,0.127-0.337,0.288-0.45
					c0.104-0.074,0.287-0.01,0.406-0.051c0.2-0.069,0.339-0.263,0.376-0.46c0.016-0.082,0.01-0.145,0.039-0.221
					c0.039-0.103,0.111-0.16,0.09-0.293c-0.01-0.062-0.052-0.12-0.064-0.187c-0.022-0.114,0.002-0.224,0-0.337
					c-0.003-0.2,0.017-0.379-0.078-0.55c-0.38-0.688-1.236-0.929-1.975-0.789c-0.18,0.034-0.287,0.126-0.442,0.207
					c-0.17,0.088-0.139,0.166-0.318,0.224c-0.081,0.026-0.216,0.124-0.215,0.224c0.001,0.115,0.005,0.051,0.012,0.169
					c-0.021,0.011-0.021-0.005-0.03-0.025"/>
				<path fill="#FFFFFF" d="M23.477-18.084c0.018,0.072,0.007,0.127-0.026,0.19c-0.053,0.101-0.112,0.063-0.165,0.128
					c-0.05,0.063-0.099,0.276-0.079,0.362c-0.169,0.058-0.009,0.227-0.015,0.35c-0.002,0.05-0.041,0.105-0.045,0.161
					c-0.01,0.119,0.017,0.266,0.068,0.37c0.097,0.198,0.268,0.413,0.435,0.544c0.19,0.148,0.365,0.572,0.608,0.631
					c0.177,0.042,0.384-0.104,0.543-0.143c0.18-0.043,0.397,0.01,0.571-0.053c0.222-0.079,0.127-0.337,0.288-0.45
					c0.104-0.074,0.287-0.01,0.406-0.051c0.2-0.069,0.339-0.263,0.376-0.46c0.016-0.082,0.01-0.145,0.039-0.221
					c0.039-0.103,0.111-0.16,0.09-0.293c-0.01-0.062-0.052-0.12-0.064-0.187c-0.022-0.114,0.002-0.224,0-0.337
					c-0.003-0.2,0.017-0.379-0.078-0.55c-0.38-0.688-1.236-0.929-1.975-0.789c-0.18,0.034-0.287,0.126-0.442,0.207
					c-0.17,0.088-0.139,0.166-0.318,0.224c-0.081,0.026-0.216,0.124-0.215,0.224c0.001,0.115,0.005,0.051,0.012,0.169
					c-0.021,0.011-0.021-0.005-0.03-0.025"/>
				<path fill="#FFFFFF" d="M15.816-18.084c0.018,0.072,0.007,0.127-0.026,0.19c-0.053,0.101-0.112,0.063-0.165,0.128
					c-0.05,0.063-0.099,0.276-0.079,0.362c-0.169,0.058-0.009,0.227-0.015,0.35c-0.002,0.05-0.041,0.105-0.045,0.161
					c-0.01,0.119,0.017,0.266,0.068,0.37c0.097,0.198,0.268,0.413,0.435,0.544c0.19,0.148,0.365,0.572,0.608,0.631
					c0.177,0.042,0.384-0.104,0.543-0.143c0.18-0.043,0.397,0.01,0.571-0.053c0.222-0.079,0.127-0.337,0.288-0.45
					c0.104-0.074,0.287-0.01,0.406-0.051c0.2-0.069,0.339-0.263,0.376-0.46c0.016-0.082,0.01-0.145,0.039-0.221
					c0.039-0.103,0.111-0.16,0.09-0.293c-0.01-0.062-0.052-0.12-0.064-0.187c-0.022-0.114,0.002-0.224,0-0.337
					c-0.003-0.2,0.017-0.379-0.078-0.55c-0.38-0.688-1.236-0.929-1.975-0.789c-0.18,0.034-0.287,0.126-0.442,0.207
					c-0.17,0.088-0.139,0.166-0.318,0.224c-0.081,0.026-0.216,0.124-0.215,0.224c0.001,0.115,0.005,0.051,0.012,0.169
					c-0.021,0.011-0.021-0.005-0.03-0.025"/>
				<path fill="#FFFFFF" d="M8.156-18.084c0.018,0.072,0.007,0.127-0.026,0.19c-0.053,0.101-0.112,0.063-0.165,0.128
					c-0.05,0.063-0.099,0.276-0.079,0.362c-0.169,0.058-0.009,0.227-0.015,0.35c-0.002,0.05-0.041,0.105-0.045,0.161
					c-0.01,0.119,0.017,0.266,0.068,0.37c0.097,0.198,0.268,0.413,0.435,0.544c0.19,0.148,0.365,0.572,0.608,0.631
					c0.177,0.042,0.384-0.104,0.543-0.143c0.18-0.043,0.397,0.01,0.571-0.053c0.222-0.079,0.127-0.337,0.288-0.45
					c0.104-0.074,0.287-0.01,0.406-0.051c0.2-0.069,0.339-0.263,0.376-0.46c0.016-0.082,0.01-0.145,0.039-0.221
					c0.039-0.103,0.111-0.16,0.09-0.293c-0.01-0.062-0.052-0.12-0.064-0.187c-0.022-0.114,0.002-0.224,0-0.337
					c-0.003-0.2,0.017-0.379-0.078-0.55c-0.38-0.688-1.236-0.929-1.975-0.789c-0.18,0.034-0.287,0.126-0.442,0.207
					c-0.17,0.088-0.139,0.166-0.318,0.224c-0.081,0.026-0.216,0.124-0.215,0.224c0.001,0.115,0.005,0.051,0.012,0.169
					c-0.021,0.011-0.021-0.005-0.03-0.025"/>
				<path fill="#FFFFFF" d="M0.495-18.084c0.018,0.072,0.007,0.127-0.026,0.19c-0.053,0.101-0.112,0.063-0.165,0.128
					c-0.05,0.063-0.099,0.276-0.079,0.362c-0.169,0.058-0.01,0.227-0.015,0.35c-0.002,0.05-0.041,0.105-0.045,0.161
					c-0.01,0.119,0.017,0.266,0.068,0.37c0.097,0.198,0.268,0.413,0.435,0.544c0.19,0.148,0.365,0.572,0.608,0.631
					c0.177,0.042,0.384-0.104,0.543-0.143c0.18-0.043,0.397,0.01,0.571-0.053c0.222-0.079,0.127-0.337,0.288-0.45
					c0.104-0.074,0.287-0.01,0.406-0.051c0.2-0.069,0.339-0.263,0.376-0.46c0.016-0.082,0.01-0.145,0.039-0.221
					c0.039-0.103,0.111-0.16,0.09-0.293c-0.01-0.062-0.052-0.12-0.064-0.187c-0.022-0.114,0.002-0.224,0-0.337
					c-0.003-0.2,0.017-0.379-0.078-0.55c-0.38-0.688-1.236-0.929-1.975-0.789c-0.18,0.034-0.287,0.126-0.442,0.207
					c-0.17,0.088-0.139,0.166-0.318,0.224c-0.081,0.026-0.216,0.124-0.215,0.224C0.5-18.11,0.503-18.175,0.51-18.057
					c-0.021,0.011-0.021-0.005-0.03-0.025"/>
			</g>
			<g>
				<path fill="#FFFFFF" d="M69.439-10.431c0.018,0.072,0.007,0.127-0.026,0.19c-0.053,0.101-0.112,0.063-0.165,0.128
					c-0.05,0.063-0.099,0.276-0.079,0.362C69-9.692,69.159-9.523,69.154-9.4c-0.002,0.05-0.041,0.105-0.045,0.161
					c-0.01,0.119,0.017,0.266,0.068,0.37c0.097,0.198,0.268,0.413,0.435,0.544c0.19,0.148,0.365,0.572,0.608,0.631
					c0.177,0.042,0.384-0.104,0.543-0.143c0.18-0.043,0.397,0.01,0.571-0.053c0.222-0.079,0.127-0.337,0.288-0.45
					c0.104-0.074,0.287-0.01,0.406-0.051c0.2-0.069,0.339-0.263,0.376-0.46c0.016-0.082,0.01-0.145,0.039-0.221
					c0.039-0.103,0.111-0.16,0.09-0.293c-0.01-0.062-0.052-0.12-0.064-0.187c-0.022-0.114,0.002-0.224,0-0.337
					c-0.003-0.2,0.017-0.379-0.078-0.55c-0.38-0.688-1.236-0.929-1.975-0.789c-0.18,0.034-0.287,0.126-0.442,0.207
					c-0.17,0.088-0.139,0.166-0.318,0.224c-0.081,0.026-0.216,0.124-0.215,0.224c0.001,0.115,0.005,0.051,0.012,0.169
					c-0.021,0.011-0.021-0.005-0.03-0.025"/>
				<path fill="#FFFFFF" d="M61.778-10.431c0.018,0.072,0.007,0.127-0.026,0.19c-0.053,0.101-0.112,0.063-0.165,0.128
					c-0.05,0.063-0.099,0.276-0.079,0.362c-0.169,0.058-0.009,0.227-0.015,0.35c-0.002,0.05-0.041,0.105-0.045,0.161
					c-0.01,0.119,0.017,0.266,0.068,0.37c0.097,0.198,0.268,0.413,0.435,0.544c0.19,0.148,0.365,0.572,0.608,0.631
					c0.177,0.042,0.384-0.104,0.543-0.143c0.18-0.043,0.397,0.01,0.571-0.053c0.222-0.079,0.127-0.337,0.288-0.45
					c0.104-0.074,0.287-0.01,0.406-0.051c0.2-0.069,0.339-0.263,0.376-0.46c0.016-0.082,0.01-0.145,0.039-0.221
					c0.039-0.103,0.111-0.16,0.09-0.293c-0.01-0.062-0.052-0.12-0.064-0.187c-0.022-0.114,0.002-0.224,0-0.337
					c-0.003-0.2,0.017-0.379-0.078-0.55c-0.38-0.688-1.236-0.929-1.975-0.789c-0.18,0.034-0.287,0.126-0.442,0.207
					c-0.17,0.088-0.139,0.166-0.318,0.224c-0.081,0.026-0.216,0.124-0.215,0.224c0.001,0.115,0.005,0.051,0.012,0.169
					c-0.021,0.011-0.021-0.005-0.03-0.025"/>
				<path fill="#FFFFFF" d="M54.118-10.431c0.018,0.072,0.007,0.127-0.026,0.19c-0.053,0.101-0.112,0.063-0.165,0.128
					c-0.05,0.063-0.099,0.276-0.079,0.362c-0.169,0.058-0.009,0.227-0.015,0.35c-0.002,0.05-0.041,0.105-0.045,0.161
					c-0.01,0.119,0.017,0.266,0.068,0.37c0.097,0.198,0.268,0.413,0.435,0.544c0.19,0.148,0.365,0.572,0.608,0.631
					c0.177,0.042,0.384-0.104,0.543-0.143c0.18-0.043,0.397,0.01,0.571-0.053c0.222-0.079,0.127-0.337,0.288-0.45
					c0.104-0.074,0.287-0.01,0.406-0.051c0.2-0.069,0.339-0.263,0.376-0.46c0.016-0.082,0.01-0.145,0.039-0.221
					c0.039-0.103,0.111-0.16,0.09-0.293c-0.01-0.062-0.052-0.12-0.064-0.187c-0.022-0.114,0.002-0.224,0-0.337
					c-0.003-0.2,0.017-0.379-0.078-0.55c-0.38-0.688-1.236-0.929-1.975-0.789c-0.18,0.034-0.287,0.126-0.442,0.207
					c-0.17,0.088-0.139,0.166-0.318,0.224c-0.081,0.026-0.216,0.124-0.215,0.224c0.001,0.115,0.005,0.051,0.012,0.169
					c-0.021,0.011-0.021-0.005-0.03-0.025"/>
				<path fill="#FFFFFF" d="M46.458-10.431c0.018,0.072,0.007,0.127-0.026,0.19c-0.053,0.101-0.112,0.063-0.165,0.128
					c-0.05,0.063-0.099,0.276-0.079,0.362c-0.169,0.058-0.009,0.227-0.015,0.35c-0.002,0.05-0.041,0.105-0.045,0.161
					c-0.01,0.119,0.017,0.266,0.068,0.37c0.097,0.198,0.268,0.413,0.435,0.544c0.19,0.148,0.365,0.572,0.608,0.631
					c0.177,0.042,0.384-0.104,0.543-0.143c0.18-0.043,0.397,0.01,0.571-0.053c0.222-0.079,0.127-0.337,0.288-0.45
					c0.104-0.074,0.287-0.01,0.406-0.051c0.2-0.069,0.339-0.263,0.376-0.46c0.016-0.082,0.01-0.145,0.039-0.221
					c0.039-0.103,0.111-0.16,0.09-0.293c-0.01-0.062-0.052-0.12-0.064-0.187c-0.022-0.114,0.002-0.224,0-0.337
					c-0.003-0.2,0.017-0.379-0.078-0.55c-0.38-0.688-1.236-0.929-1.975-0.789c-0.18,0.034-0.287,0.126-0.442,0.207
					c-0.17,0.088-0.139,0.166-0.318,0.224c-0.081,0.026-0.216,0.124-0.215,0.224c0.001,0.115,0.005,0.051,0.012,0.169
					c-0.021,0.011-0.021-0.005-0.03-0.025"/>
				<path fill="#FFFFFF" d="M38.797-10.431c0.018,0.072,0.007,0.127-0.026,0.19c-0.053,0.101-0.112,0.063-0.165,0.128
					c-0.05,0.063-0.099,0.276-0.079,0.362c-0.169,0.058-0.009,0.227-0.015,0.35c-0.002,0.05-0.041,0.105-0.045,0.161
					c-0.01,0.119,0.017,0.266,0.068,0.37c0.097,0.198,0.268,0.413,0.435,0.544c0.19,0.148,0.365,0.572,0.608,0.631
					c0.177,0.042,0.384-0.104,0.543-0.143c0.18-0.043,0.397,0.01,0.571-0.053c0.222-0.079,0.127-0.337,0.288-0.45
					c0.104-0.074,0.287-0.01,0.406-0.051c0.2-0.069,0.339-0.263,0.376-0.46c0.016-0.082,0.01-0.145,0.039-0.221
					c0.039-0.103,0.111-0.16,0.09-0.293c-0.01-0.062-0.052-0.12-0.064-0.187c-0.022-0.114,0.002-0.224,0-0.337
					c-0.003-0.2,0.017-0.379-0.078-0.55c-0.38-0.688-1.236-0.929-1.975-0.789c-0.18,0.034-0.287,0.126-0.442,0.207
					c-0.17,0.088-0.139,0.166-0.318,0.224c-0.081,0.026-0.216,0.124-0.215,0.224c0.001,0.115,0.005,0.051,0.012,0.169
					c-0.021,0.011-0.021-0.005-0.03-0.025"/>
				<path fill="#FFFFFF" d="M31.137-10.431c0.018,0.072,0.007,0.127-0.026,0.19c-0.053,0.101-0.112,0.063-0.165,0.128
					c-0.05,0.063-0.099,0.276-0.079,0.362c-0.169,0.058-0.009,0.227-0.015,0.35c-0.002,0.05-0.041,0.105-0.045,0.161
					c-0.01,0.119,0.017,0.266,0.068,0.37c0.097,0.198,0.268,0.413,0.435,0.544c0.19,0.148,0.365,0.572,0.608,0.631
					c0.177,0.042,0.384-0.104,0.543-0.143c0.18-0.043,0.397,0.01,0.571-0.053c0.222-0.079,0.127-0.337,0.288-0.45
					c0.104-0.074,0.287-0.01,0.406-0.051c0.2-0.069,0.339-0.263,0.376-0.46c0.016-0.082,0.01-0.145,0.039-0.221
					c0.039-0.103,0.111-0.16,0.09-0.293c-0.01-0.062-0.052-0.12-0.064-0.187c-0.022-0.114,0.002-0.224,0-0.337
					c-0.003-0.2,0.017-0.379-0.078-0.55c-0.38-0.688-1.236-0.929-1.975-0.789c-0.18,0.034-0.287,0.126-0.442,0.207
					c-0.17,0.088-0.139,0.166-0.318,0.224c-0.081,0.026-0.216,0.124-0.215,0.224c0.001,0.115,0.005,0.051,0.012,0.169
					c-0.021,0.011-0.021-0.005-0.03-0.025"/>
				<path fill="#FFFFFF" d="M23.477-10.431c0.018,0.072,0.007,0.127-0.026,0.19c-0.053,0.101-0.112,0.063-0.165,0.128
					c-0.05,0.063-0.099,0.276-0.079,0.362c-0.169,0.058-0.009,0.227-0.015,0.35c-0.002,0.05-0.041,0.105-0.045,0.161
					c-0.01,0.119,0.017,0.266,0.068,0.37c0.097,0.198,0.268,0.413,0.435,0.544c0.19,0.148,0.365,0.572,0.608,0.631
					c0.177,0.042,0.384-0.104,0.543-0.143c0.18-0.043,0.397,0.01,0.571-0.053c0.222-0.079,0.127-0.337,0.288-0.45
					c0.104-0.074,0.287-0.01,0.406-0.051c0.2-0.069,0.339-0.263,0.376-0.46c0.016-0.082,0.01-0.145,0.039-0.221
					c0.039-0.103,0.111-0.16,0.09-0.293c-0.01-0.062-0.052-0.12-0.064-0.187c-0.022-0.114,0.002-0.224,0-0.337
					c-0.003-0.2,0.017-0.379-0.078-0.55c-0.38-0.688-1.236-0.929-1.975-0.789c-0.18,0.034-0.287,0.126-0.442,0.207
					c-0.17,0.088-0.139,0.166-0.318,0.224c-0.081,0.026-0.216,0.124-0.215,0.224c0.001,0.115,0.005,0.051,0.012,0.169
					c-0.021,0.011-0.021-0.005-0.03-0.025"/>
				<path fill="#FFFFFF" d="M15.816-10.431c0.018,0.072,0.007,0.127-0.026,0.19c-0.053,0.101-0.112,0.063-0.165,0.128
					c-0.05,0.063-0.099,0.276-0.079,0.362c-0.169,0.058-0.009,0.227-0.015,0.35c-0.002,0.05-0.041,0.105-0.045,0.161
					c-0.01,0.119,0.017,0.266,0.068,0.37c0.097,0.198,0.268,0.413,0.435,0.544c0.19,0.148,0.365,0.572,0.608,0.631
					c0.177,0.042,0.384-0.104,0.543-0.143c0.18-0.043,0.397,0.01,0.571-0.053C17.933-7.969,17.839-8.227,18-8.34
					c0.104-0.074,0.287-0.01,0.406-0.051c0.2-0.069,0.339-0.263,0.376-0.46c0.016-0.082,0.01-0.145,0.039-0.221
					c0.039-0.103,0.111-0.16,0.09-0.293c-0.01-0.062-0.052-0.12-0.064-0.187c-0.022-0.114,0.002-0.224,0-0.337
					c-0.003-0.2,0.017-0.379-0.078-0.55c-0.38-0.688-1.236-0.929-1.975-0.789c-0.18,0.034-0.287,0.126-0.442,0.207
					c-0.17,0.088-0.139,0.166-0.318,0.224c-0.081,0.026-0.216,0.124-0.215,0.224c0.001,0.115,0.005,0.051,0.012,0.169
					c-0.021,0.011-0.021-0.005-0.03-0.025"/>
				<path fill="#FFFFFF" d="M8.156-10.431c0.018,0.072,0.007,0.127-0.026,0.19c-0.053,0.101-0.112,0.063-0.165,0.128
					C7.915-10.05,7.866-9.836,7.886-9.75C7.717-9.692,7.876-9.523,7.871-9.4C7.868-9.351,7.83-9.295,7.826-9.239
					c-0.01,0.119,0.017,0.266,0.068,0.37c0.097,0.198,0.268,0.413,0.435,0.544c0.19,0.148,0.365,0.572,0.608,0.631
					C9.114-7.652,9.321-7.799,9.48-7.837c0.18-0.043,0.397,0.01,0.571-0.053c0.222-0.079,0.127-0.337,0.288-0.45
					c0.104-0.074,0.287-0.01,0.406-0.051c0.2-0.069,0.339-0.263,0.376-0.46c0.016-0.082,0.01-0.145,0.039-0.221
					c0.039-0.103,0.111-0.16,0.09-0.293c-0.01-0.062-0.052-0.12-0.064-0.187c-0.022-0.114,0.002-0.224,0-0.337
					c-0.003-0.2,0.017-0.379-0.078-0.55c-0.38-0.688-1.236-0.929-1.975-0.789c-0.18,0.034-0.287,0.126-0.442,0.207
					c-0.17,0.088-0.139,0.166-0.318,0.224c-0.081,0.026-0.216,0.124-0.215,0.224c0.001,0.115,0.005,0.051,0.012,0.169
					c-0.021,0.011-0.021-0.005-0.03-0.025"/>
				<path fill="#FFFFFF" d="M0.495-10.431c0.018,0.072,0.007,0.127-0.026,0.19c-0.053,0.101-0.112,0.063-0.165,0.128
					C0.254-10.05,0.205-9.836,0.225-9.75C0.056-9.692,0.215-9.523,0.21-9.4c-0.002,0.05-0.041,0.105-0.045,0.161
					c-0.01,0.119,0.017,0.266,0.068,0.37C0.33-8.671,0.501-8.456,0.668-8.325c0.19,0.148,0.365,0.572,0.608,0.631
					C1.454-7.652,1.66-7.799,1.819-7.837C2-7.88,2.217-7.827,2.391-7.89c0.222-0.079,0.127-0.337,0.288-0.45
					c0.104-0.074,0.287-0.01,0.406-0.051c0.2-0.069,0.339-0.263,0.376-0.46C3.477-8.933,3.471-8.995,3.5-9.071
					c0.039-0.103,0.111-0.16,0.09-0.293c-0.01-0.062-0.052-0.12-0.064-0.187c-0.022-0.114,0.002-0.224,0-0.337
					c-0.003-0.2,0.017-0.379-0.078-0.55c-0.38-0.688-1.236-0.929-1.975-0.789c-0.18,0.034-0.287,0.126-0.442,0.207
					c-0.17,0.088-0.139,0.166-0.318,0.224c-0.081,0.026-0.216,0.124-0.215,0.224c0.001,0.115,0.005,0.051,0.012,0.169
					c-0.021,0.011-0.021-0.005-0.03-0.025"/>
			</g>
		</g>
		<g>
			<path fill="#FFFFFF" d="M69.439-2.778c0.018,0.072,0.008,0.127-0.026,0.19C69.361-2.487,69.3-2.525,69.248-2.46
				c-0.051,0.063-0.099,0.276-0.079,0.362C69-2.04,69.159-1.871,69.154-1.748c-0.002,0.05-0.041,0.105-0.045,0.161
				c-0.01,0.119,0.017,0.266,0.068,0.37c0.097,0.198,0.268,0.413,0.435,0.544c0.19,0.148,0.365,0.572,0.608,0.631
				C70.397,0,70.604-0.146,70.763-0.185c0.18-0.043,0.397,0.01,0.571-0.053c0.222-0.079,0.127-0.337,0.288-0.45
				c0.104-0.074,0.287-0.01,0.406-0.051c0.2-0.07,0.339-0.263,0.376-0.46c0.016-0.082,0.01-0.145,0.039-0.221
				c0.038-0.103,0.111-0.16,0.09-0.293c-0.01-0.062-0.051-0.12-0.064-0.187c-0.021-0.114,0.002-0.224,0-0.337
				c-0.003-0.2,0.017-0.379-0.078-0.55c-0.38-0.688-1.236-0.929-1.975-0.789c-0.18,0.034-0.287,0.126-0.442,0.207
				c-0.17,0.088-0.139,0.166-0.318,0.224c-0.081,0.026-0.215,0.124-0.215,0.224c0.002,0.115,0.005,0.051,0.012,0.169
				c-0.021,0.011-0.021-0.005-0.03-0.025"/>
			<path fill="#FFFFFF" d="M61.778-2.778c0.018,0.072,0.007,0.127-0.026,0.19C61.7-2.487,61.64-2.525,61.587-2.46
				c-0.05,0.063-0.099,0.276-0.079,0.362c-0.169,0.058-0.01,0.227-0.015,0.35c-0.002,0.05-0.041,0.105-0.045,0.161
				c-0.01,0.119,0.017,0.266,0.068,0.37c0.097,0.198,0.268,0.413,0.435,0.544c0.19,0.148,0.365,0.572,0.608,0.631
				C62.737,0,62.943-0.146,63.103-0.185c0.18-0.043,0.397,0.01,0.571-0.053c0.222-0.079,0.127-0.337,0.288-0.45
				c0.104-0.074,0.287-0.01,0.406-0.051c0.2-0.069,0.339-0.263,0.376-0.46c0.016-0.082,0.01-0.145,0.039-0.221
				c0.039-0.103,0.111-0.16,0.09-0.293c-0.01-0.062-0.052-0.12-0.064-0.187c-0.022-0.114,0.002-0.224,0-0.337
				c-0.003-0.2,0.017-0.379-0.078-0.55c-0.38-0.688-1.236-0.929-1.975-0.789c-0.18,0.034-0.287,0.126-0.442,0.207
				c-0.17,0.088-0.139,0.166-0.318,0.224C61.915-3.117,61.78-3.02,61.781-2.92c0.001,0.115,0.005,0.051,0.012,0.169
				c-0.021,0.011-0.021-0.005-0.03-0.025"/>
			<path fill="#FFFFFF" d="M54.118-2.778c0.018,0.072,0.007,0.127-0.026,0.19C54.04-2.487,53.98-2.525,53.927-2.46
				c-0.05,0.063-0.099,0.276-0.079,0.362c-0.169,0.058-0.01,0.227-0.015,0.35c-0.002,0.05-0.041,0.105-0.045,0.161
				c-0.01,0.119,0.017,0.266,0.068,0.37c0.097,0.198,0.268,0.413,0.435,0.544c0.19,0.148,0.365,0.572,0.608,0.631
				C55.077,0,55.283-0.146,55.442-0.185c0.18-0.043,0.397,0.01,0.571-0.053c0.222-0.079,0.127-0.337,0.288-0.45
				c0.104-0.074,0.287-0.01,0.406-0.051c0.2-0.069,0.339-0.263,0.376-0.46c0.016-0.082,0.01-0.145,0.039-0.221
				c0.039-0.103,0.111-0.16,0.09-0.293c-0.01-0.062-0.052-0.12-0.064-0.187c-0.022-0.114,0.002-0.224,0-0.337
				c-0.003-0.2,0.017-0.379-0.078-0.55c-0.38-0.688-1.236-0.929-1.975-0.789c-0.18,0.034-0.287,0.126-0.442,0.207
				c-0.17,0.088-0.139,0.166-0.318,0.224C54.255-3.117,54.12-3.02,54.121-2.92c0.001,0.115,0.005,0.051,0.012,0.169
				c-0.021,0.011-0.021-0.005-0.03-0.025"/>
			<path fill="#FFFFFF" d="M46.458-2.778c0.018,0.072,0.007,0.127-0.026,0.19c-0.053,0.101-0.112,0.063-0.165,0.128
				c-0.05,0.063-0.099,0.276-0.079,0.362c-0.169,0.058-0.01,0.227-0.015,0.35c-0.002,0.05-0.041,0.105-0.045,0.161
				c-0.01,0.119,0.017,0.266,0.068,0.37c0.097,0.198,0.268,0.413,0.435,0.544c0.19,0.148,0.365,0.572,0.608,0.631
				C47.416,0,47.623-0.146,47.782-0.185c0.18-0.043,0.397,0.01,0.571-0.053c0.222-0.079,0.127-0.337,0.288-0.45
				c0.104-0.074,0.287-0.01,0.406-0.051c0.2-0.069,0.339-0.263,0.376-0.46c0.016-0.082,0.01-0.145,0.039-0.221
				c0.039-0.103,0.111-0.16,0.09-0.293c-0.01-0.062-0.052-0.12-0.064-0.187c-0.022-0.114,0.002-0.224,0-0.337
				c-0.003-0.2,0.017-0.379-0.078-0.55c-0.38-0.688-1.236-0.929-1.975-0.789c-0.18,0.034-0.287,0.126-0.442,0.207
				c-0.17,0.088-0.139,0.166-0.318,0.224C46.594-3.117,46.459-3.02,46.46-2.92c0.001,0.115,0.005,0.051,0.012,0.169
				c-0.021,0.011-0.021-0.005-0.03-0.025"/>
			<path fill="#FFFFFF" d="M38.797-2.778c0.018,0.072,0.007,0.127-0.026,0.19c-0.053,0.101-0.112,0.063-0.165,0.128
				c-0.05,0.063-0.099,0.276-0.079,0.362c-0.169,0.058-0.01,0.227-0.015,0.35c-0.002,0.05-0.041,0.105-0.045,0.161
				c-0.01,0.119,0.017,0.266,0.068,0.37c0.097,0.198,0.268,0.413,0.435,0.544c0.19,0.148,0.365,0.572,0.608,0.631
				C39.756,0,39.962-0.146,40.122-0.185c0.18-0.043,0.397,0.01,0.571-0.053c0.222-0.079,0.127-0.337,0.288-0.45
				c0.104-0.074,0.287-0.01,0.406-0.051c0.2-0.069,0.339-0.263,0.376-0.46c0.016-0.082,0.01-0.145,0.039-0.221
				c0.039-0.103,0.111-0.16,0.09-0.293c-0.01-0.062-0.052-0.12-0.064-0.187c-0.022-0.114,0.002-0.224,0-0.337
				c-0.003-0.2,0.017-0.379-0.078-0.55c-0.38-0.688-1.236-0.929-1.975-0.789c-0.18,0.034-0.287,0.126-0.442,0.207
				c-0.17,0.088-0.139,0.166-0.318,0.224C38.934-3.117,38.799-3.02,38.8-2.92c0.001,0.115,0.005,0.051,0.012,0.169
				c-0.021,0.011-0.021-0.005-0.03-0.025"/>
			<path fill="#FFFFFF" d="M31.137-2.778c0.018,0.072,0.007,0.127-0.026,0.19c-0.053,0.101-0.112,0.063-0.165,0.128
				c-0.05,0.063-0.099,0.276-0.079,0.362c-0.169,0.058-0.01,0.227-0.015,0.35c-0.002,0.05-0.041,0.105-0.045,0.161
				c-0.01,0.119,0.017,0.266,0.068,0.37c0.097,0.198,0.268,0.413,0.435,0.544c0.19,0.148,0.365,0.572,0.608,0.631
				C32.095,0,32.302-0.146,32.461-0.185c0.18-0.043,0.397,0.01,0.571-0.053c0.222-0.079,0.127-0.337,0.288-0.45
				c0.104-0.074,0.287-0.01,0.406-0.051c0.2-0.069,0.339-0.263,0.376-0.46c0.016-0.082,0.01-0.145,0.039-0.221
				c0.039-0.103,0.111-0.16,0.09-0.293c-0.01-0.062-0.052-0.12-0.064-0.187c-0.022-0.114,0.002-0.224,0-0.337
				c-0.003-0.2,0.017-0.379-0.078-0.55c-0.38-0.688-1.236-0.929-1.975-0.789c-0.18,0.034-0.287,0.126-0.442,0.207
				c-0.17,0.088-0.139,0.166-0.318,0.224C31.273-3.117,31.139-3.02,31.14-2.92c0.001,0.115,0.005,0.051,0.012,0.169
				c-0.021,0.011-0.021-0.005-0.03-0.025"/>
			<path fill="#FFFFFF" d="M23.477-2.778c0.018,0.072,0.007,0.127-0.026,0.19c-0.053,0.101-0.112,0.063-0.165,0.128
				c-0.05,0.063-0.099,0.276-0.079,0.362c-0.169,0.058-0.01,0.227-0.015,0.35c-0.002,0.05-0.041,0.105-0.045,0.161
				c-0.01,0.119,0.017,0.266,0.068,0.37c0.097,0.198,0.268,0.413,0.435,0.544c0.19,0.148,0.365,0.572,0.608,0.631
				C24.435,0,24.642-0.146,24.801-0.185c0.18-0.043,0.397,0.01,0.571-0.053c0.222-0.079,0.127-0.337,0.288-0.45
				c0.104-0.074,0.287-0.01,0.406-0.051c0.2-0.069,0.339-0.263,0.376-0.46c0.016-0.082,0.01-0.145,0.039-0.221
				c0.039-0.103,0.111-0.16,0.09-0.293c-0.01-0.062-0.052-0.12-0.064-0.187c-0.022-0.114,0.002-0.224,0-0.337
				c-0.003-0.2,0.017-0.379-0.078-0.55c-0.38-0.688-1.236-0.929-1.975-0.789c-0.18,0.034-0.287,0.126-0.442,0.207
				c-0.17,0.088-0.139,0.166-0.318,0.224c-0.081,0.026-0.216,0.124-0.215,0.224c0.001,0.115,0.005,0.051,0.012,0.169
				c-0.021,0.011-0.021-0.005-0.03-0.025"/>
			<path fill="#FFFFFF" d="M15.816-2.778c0.018,0.072,0.007,0.127-0.026,0.19c-0.053,0.101-0.112,0.063-0.165,0.128
				c-0.05,0.063-0.099,0.276-0.079,0.362c-0.169,0.058-0.01,0.227-0.015,0.35c-0.002,0.05-0.041,0.105-0.045,0.161
				c-0.01,0.119,0.017,0.266,0.068,0.37c0.097,0.198,0.268,0.413,0.435,0.544c0.19,0.148,0.365,0.572,0.608,0.631
				C16.774,0,16.981-0.146,17.14-0.185c0.18-0.043,0.397,0.01,0.571-0.053c0.222-0.079,0.127-0.337,0.288-0.45
				c0.104-0.074,0.287-0.01,0.406-0.051c0.2-0.069,0.339-0.263,0.376-0.46c0.016-0.082,0.01-0.145,0.039-0.221
				c0.039-0.103,0.111-0.16,0.09-0.293c-0.01-0.062-0.052-0.12-0.064-0.187c-0.022-0.114,0.002-0.224,0-0.337
				c-0.003-0.2,0.017-0.379-0.078-0.55c-0.38-0.688-1.236-0.929-1.975-0.789c-0.18,0.034-0.287,0.126-0.442,0.207
				c-0.17,0.088-0.139,0.166-0.318,0.224c-0.081,0.026-0.216,0.124-0.215,0.224c0.001,0.115,0.005,0.051,0.012,0.169
				C15.81-2.74,15.809-2.756,15.8-2.776"/>
			<path fill="#FFFFFF" d="M8.156-2.778c0.018,0.072,0.007,0.127-0.026,0.19C8.077-2.487,8.018-2.525,7.965-2.46
				c-0.05,0.063-0.099,0.276-0.079,0.362c-0.169,0.058-0.01,0.227-0.015,0.35C7.868-1.698,7.83-1.643,7.826-1.587
				c-0.01,0.119,0.017,0.266,0.068,0.37c0.097,0.198,0.268,0.413,0.435,0.544c0.19,0.148,0.365,0.572,0.608,0.631
				C9.114,0,9.321-0.146,9.48-0.185c0.18-0.043,0.397,0.01,0.571-0.053c0.222-0.079,0.127-0.337,0.288-0.45
				c0.104-0.074,0.287-0.01,0.406-0.051c0.2-0.069,0.339-0.263,0.376-0.46c0.016-0.082,0.01-0.145,0.039-0.221
				c0.039-0.103,0.111-0.16,0.09-0.293c-0.01-0.062-0.052-0.12-0.064-0.187c-0.022-0.114,0.002-0.224,0-0.337
				c-0.003-0.2,0.017-0.379-0.078-0.55c-0.38-0.688-1.236-0.929-1.975-0.789C8.954-3.54,8.847-3.448,8.692-3.367
				c-0.17,0.088-0.139,0.166-0.318,0.224C8.292-3.117,8.158-3.02,8.159-2.92C8.16-2.805,8.164-2.869,8.17-2.751
				C8.15-2.74,8.149-2.756,8.14-2.776"/>
			<path fill="#FFFFFF" d="M0.495-2.778c0.018,0.072,0.008,0.127-0.026,0.19C0.417-2.487,0.356-2.525,0.304-2.46
				C0.253-2.397,0.205-2.184,0.225-2.098C0.056-2.04,0.215-1.871,0.21-1.748c-0.002,0.05-0.041,0.105-0.045,0.161
				c-0.01,0.119,0.017,0.266,0.068,0.37C0.33-1.019,0.501-0.804,0.668-0.673c0.19,0.148,0.365,0.572,0.608,0.631
				C1.454,0,1.66-0.146,1.819-0.185C2-0.228,2.217-0.175,2.391-0.237c0.222-0.079,0.127-0.337,0.288-0.45
				c0.104-0.074,0.287-0.01,0.406-0.051c0.2-0.07,0.339-0.263,0.376-0.46C3.477-1.28,3.471-1.343,3.5-1.419
				c0.038-0.103,0.111-0.16,0.09-0.293c-0.01-0.062-0.051-0.12-0.064-0.187c-0.021-0.114,0.002-0.224,0-0.337
				c-0.003-0.2,0.017-0.379-0.078-0.55c-0.38-0.688-1.236-0.929-1.975-0.789C1.293-3.54,1.187-3.448,1.031-3.367
				c-0.17,0.088-0.139,0.166-0.318,0.224C0.632-3.117,0.498-3.02,0.498-2.92C0.5-2.805,0.503-2.869,0.51-2.751
				C0.489-2.74,0.488-2.756,0.479-2.776"/>
		</g>
	</g>
</pattern>
<path d="M640.25,1.25C560.583,1.25,496,65.833,496,145.5s64.583,144.25,144.25,144.25S784.5,225.167,784.5,145.5
	S719.917,1.25,640.25,1.25z M530.171,216.063l63.662-110.356l92.167,0l63.496,110.355H530.171z"/>
<polygon fill="#FFFF00" points="686,27.123 662.75,65.661 640.5,27.123 618.083,65.949 593.833,27.123 593.833,100.41 686,100.41 
	"/>
<path d="M625.5,177.25c0,4.832-3.917,8.75-8.75,8.75l0,0c-4.833,0-8.75-3.918-8.75-8.75v-32c0-4.833,3.917-8.75,8.75-8.75l0,0
	c4.833,0,8.75,3.917,8.75,8.75V177.25z"/>
<path d="M673.5,177.25c0,4.832-3.918,8.75-8.75,8.75l0,0c-4.832,0-8.75-3.918-8.75-8.75v-32c0-4.833,3.918-8.75,8.75-8.75l0,0
	c4.832,0,8.75,3.917,8.75,8.75V177.25z"/>
<g>
	<path d="M24.511,139.5H5.082V4.843h15.774l44.437,65.405l44.437-65.405h15.389V139.5h-19.237V44.663L70.679,96.987H59.714
		L24.511,44.663V139.5z"/>
	<path d="M159.739,71.209h22.7c16.351,0,24.431-11.734,24.431-23.469c0-11.542-8.08-23.276-24.431-23.276h-29.817V139.5h-19.237
		V4.843h49.054c29.24,0,43.86,21.545,43.86,42.898c0,19.044-11.734,37.127-34.819,41.167l42.513,50.593h-25.2l-49.054-59.057V71.209
		z"/>
	<path d="M340.754,52.742c-5.579-22.122-26.739-30.202-44.245-30.202c-26.931,0-47.707,20.968-47.707,49.823
		c0,29.047,20.776,50.4,47.707,50.4c16.929,0,35.011-7.887,43.09-27.894h-50.785V75.057h74.061
		c-0.961,11.542-1.923,19.237-3.847,23.854v-0.192c-9.426,26.162-37.512,43.09-62.52,43.09c-38.473,0-67.521-29.048-67.521-69.445
		c0-40.589,29.625-69.637,67.521-69.637c26.354,0,58.095,13.466,65.405,50.016H340.754z"/>
	<path d="M440.588,39.661c-2.693-12.119-15.774-17.313-27.509-17.121c-9.041,0.192-19.044,3.27-24.431,10.195
		c-2.693,3.463-3.655,7.887-3.27,12.504c0.961,13.851,16.159,15.582,30.586,16.929c18.467,2.308,41.359,7.117,46.553,28.663
		c0.577,2.885,0.962,6.156,0.962,8.849c0,25.97-25.777,40.975-50.016,40.975c-20.776,0-45.976-12.312-48.477-36.357l-0.192-3.655
		l19.622-0.385l0.192,2.886v-0.77c1.347,12.504,16.543,19.044,29.047,19.044c14.428,0,30.202-8.08,30.202-21.93
		c0-1.346-0.192-2.885-0.577-4.617c-2.308-10.195-16.159-11.927-29.625-13.273c-20.968-2.116-45.591-6.733-47.707-34.818v0.192
		c-0.77-9.042,1.539-18.083,7.31-25.585c9.041-11.734,25.2-17.89,40.782-17.89c20.776,0,42.321,10.772,45.784,35.396L440.588,39.661
		z"/>
</g>
<g>
	<path d="M79.949,187.911c-2.693-12.119-15.774-17.313-27.509-17.121c-9.041,0.192-19.044,3.271-24.431,10.196
		c-2.693,3.462-3.655,7.887-3.27,12.504c0.962,13.851,16.159,15.581,30.586,16.928c18.467,2.309,41.359,7.118,46.553,28.663
		c0.577,2.886,0.962,6.155,0.962,8.849c0,25.97-25.777,40.975-50.016,40.975c-20.776,0-45.976-12.312-48.477-36.357l-0.192-3.655
		l19.622-0.385l0.192,2.886v-0.77c1.347,12.504,16.543,19.044,29.047,19.044c14.428,0,30.202-8.079,30.202-21.93
		c0-1.347-0.192-2.886-0.577-4.616c-2.308-10.196-16.159-11.927-29.625-13.273c-20.968-2.116-45.591-6.733-47.707-34.818v0.192
		c-0.77-9.042,1.539-18.083,7.31-25.585c9.041-11.734,25.2-17.891,40.782-17.891c20.776,0,42.321,10.772,45.784,35.396
		L79.949,187.911z"/>
	<path d="M127.266,268.321h63.289v19.429h-82.718V153.093h19.429V268.321z"/>
	<path d="M213.444,287.75h-19.429V153.093h15.774l44.437,65.405l44.437-65.405h15.389V287.75h-19.237v-94.837l-35.203,52.323
		h-10.965l-35.203-52.323V287.75z"/>
	<path d="M348.672,219.46h22.7c16.351,0,24.431-11.734,24.431-23.47c0-11.542-8.08-23.276-24.431-23.276h-29.817V287.75h-19.237
		V153.093h49.054c29.24,0,43.86,21.545,43.86,42.897c0,19.045-11.734,37.127-34.819,41.167l42.513,50.593h-25.2l-49.054-59.057
		V219.46z"/>
</g>
</svg>
